%TF.GenerationSoftware,KiCad,Pcbnew,(5.1.9)-1*%
%TF.CreationDate,2021-12-28T23:28:00-05:00*%
%TF.ProjectId,vr15,76723135-2e6b-4696-9361-645f70636258,rev?*%
%TF.SameCoordinates,Original*%
%TF.FileFunction,Legend,Top*%
%TF.FilePolarity,Positive*%
%FSLAX46Y46*%
G04 Gerber Fmt 4.6, Leading zero omitted, Abs format (unit mm)*
G04 Created by KiCad (PCBNEW (5.1.9)-1) date 2021-12-28 23:28:00*
%MOMM*%
%LPD*%
G01*
G04 APERTURE LIST*
%ADD10C,0.150000*%
%ADD11C,0.120000*%
G04 APERTURE END LIST*
D10*
X99647523Y-118070380D02*
X100266571Y-118070380D01*
X99933238Y-118451333D01*
X100076095Y-118451333D01*
X100171333Y-118498952D01*
X100218952Y-118546571D01*
X100266571Y-118641809D01*
X100266571Y-118879904D01*
X100218952Y-118975142D01*
X100171333Y-119022761D01*
X100076095Y-119070380D01*
X99790380Y-119070380D01*
X99695142Y-119022761D01*
X99647523Y-118975142D01*
X100599904Y-118403714D02*
X100838000Y-119070380D01*
X101076095Y-118403714D01*
X101361809Y-118070380D02*
X101980857Y-118070380D01*
X101647523Y-118451333D01*
X101790380Y-118451333D01*
X101885619Y-118498952D01*
X101933238Y-118546571D01*
X101980857Y-118641809D01*
X101980857Y-118879904D01*
X101933238Y-118975142D01*
X101885619Y-119022761D01*
X101790380Y-119070380D01*
X101504666Y-119070380D01*
X101409428Y-119022761D01*
X101361809Y-118975142D01*
X103378095Y-118118000D02*
X103282857Y-118070380D01*
X103140000Y-118070380D01*
X102997142Y-118118000D01*
X102901904Y-118213238D01*
X102854285Y-118308476D01*
X102806666Y-118498952D01*
X102806666Y-118641809D01*
X102854285Y-118832285D01*
X102901904Y-118927523D01*
X102997142Y-119022761D01*
X103140000Y-119070380D01*
X103235238Y-119070380D01*
X103378095Y-119022761D01*
X103425714Y-118975142D01*
X103425714Y-118641809D01*
X103235238Y-118641809D01*
X103854285Y-119070380D02*
X103854285Y-118070380D01*
X104425714Y-119070380D01*
X104425714Y-118070380D01*
X104901904Y-119070380D02*
X104901904Y-118070380D01*
X105140000Y-118070380D01*
X105282857Y-118118000D01*
X105378095Y-118213238D01*
X105425714Y-118308476D01*
X105473333Y-118498952D01*
X105473333Y-118641809D01*
X105425714Y-118832285D01*
X105378095Y-118927523D01*
X105282857Y-119022761D01*
X105140000Y-119070380D01*
X104901904Y-119070380D01*
X115189071Y-117264642D02*
X116331928Y-117264642D01*
X115252571Y-114661142D02*
X116395428Y-114661142D01*
X115824000Y-115232571D02*
X115824000Y-114089714D01*
D11*
%TO.C,J107*%
X90137000Y-92708000D02*
X89027000Y-92708000D01*
X90137000Y-91948000D02*
X90137000Y-92708000D01*
X88463529Y-91188000D02*
X87917000Y-91188000D01*
X90137000Y-91188000D02*
X89590471Y-91188000D01*
X87917000Y-91188000D02*
X87917000Y-87443000D01*
X90137000Y-91188000D02*
X90137000Y-87443000D01*
X88719470Y-87443000D02*
X87917000Y-87443000D01*
X90137000Y-87443000D02*
X89334530Y-87443000D01*
%TO.C,TP2*%
X103300000Y-117540000D02*
X103300000Y-116140000D01*
X104700000Y-117540000D02*
X103300000Y-117540000D01*
X104700000Y-116140000D02*
X104700000Y-117540000D01*
X103300000Y-116140000D02*
X104700000Y-116140000D01*
%TO.C,TP1*%
X102300000Y-116840000D02*
G75*
G03*
X102300000Y-116840000I-700000J0D01*
G01*
%TO.C,RV1*%
X94402500Y-100062000D02*
X95102500Y-100062000D01*
X94402500Y-99362000D02*
X94402500Y-100062000D01*
X97802500Y-95562000D02*
X97202500Y-95562000D01*
X97802500Y-98462000D02*
X97802500Y-95562000D01*
X94602500Y-95562000D02*
X95202500Y-95562000D01*
X94602500Y-98462000D02*
X94602500Y-95562000D01*
X96002500Y-99562000D02*
X96402500Y-99562000D01*
%TO.C,U1*%
X101092000Y-96520000D02*
G75*
G03*
X101092000Y-96520000I-254000J0D01*
G01*
X103378000Y-102128000D02*
X105328000Y-102128000D01*
X103378000Y-102128000D02*
X101428000Y-102128000D01*
X103378000Y-97008000D02*
X105328000Y-97008000D01*
X103378000Y-97008000D02*
X99928000Y-97008000D01*
%TO.C,D102*%
X102281000Y-107063500D02*
X96421000Y-107063500D01*
X102281000Y-110233500D02*
X102281000Y-107063500D01*
X96421000Y-110233500D02*
X102281000Y-110233500D01*
X100191000Y-107378500D02*
X100191000Y-109918500D01*
X100191000Y-108648500D02*
X98286000Y-109918500D01*
X98286000Y-109918500D02*
X98286000Y-107378500D01*
X98286000Y-107378500D02*
X100191000Y-108648500D01*
X100191000Y-108648500D02*
X97651000Y-108648500D01*
%TO.C,D101*%
X109413000Y-106038500D02*
X109413000Y-111898500D01*
X112583000Y-106038500D02*
X109413000Y-106038500D01*
X112583000Y-111898500D02*
X112583000Y-106038500D01*
X109728000Y-108128500D02*
X112268000Y-108128500D01*
X110998000Y-108128500D02*
X112268000Y-110033500D01*
X112268000Y-110033500D02*
X109728000Y-110033500D01*
X109728000Y-110033500D02*
X110998000Y-108128500D01*
X110998000Y-108128500D02*
X110998000Y-110668500D01*
%TO.C,D1*%
X105860000Y-92263000D02*
X111720000Y-92263000D01*
X105860000Y-89093000D02*
X105860000Y-92263000D01*
X111720000Y-89093000D02*
X105860000Y-89093000D01*
X107950000Y-91948000D02*
X107950000Y-89408000D01*
X107950000Y-90678000D02*
X109855000Y-89408000D01*
X109855000Y-89408000D02*
X109855000Y-91948000D01*
X109855000Y-91948000D02*
X107950000Y-90678000D01*
X107950000Y-90678000D02*
X110490000Y-90678000D01*
%TO.C,J101*%
X111375500Y-118614500D02*
X110045500Y-118614500D01*
X111375500Y-117284500D02*
X111375500Y-118614500D01*
X111375500Y-116014500D02*
X108715500Y-116014500D01*
X108715500Y-116014500D02*
X108715500Y-113414500D01*
X111375500Y-116014500D02*
X111375500Y-113414500D01*
X111375500Y-113414500D02*
X108715500Y-113414500D01*
%TO.C,J102*%
X105506500Y-113095500D02*
X106616500Y-113095500D01*
X105506500Y-113855500D02*
X105506500Y-113095500D01*
X107179971Y-114615500D02*
X107726500Y-114615500D01*
X105506500Y-114615500D02*
X106053029Y-114615500D01*
X107726500Y-114615500D02*
X107726500Y-115820500D01*
X105506500Y-114615500D02*
X105506500Y-115820500D01*
X106924030Y-115820500D02*
X107726500Y-115820500D01*
X105506500Y-115820500D02*
X106308970Y-115820500D01*
%TO.C,J106*%
X98140500Y-112206500D02*
X99250500Y-112206500D01*
X98140500Y-112966500D02*
X98140500Y-112206500D01*
X99813971Y-113726500D02*
X100360500Y-113726500D01*
X98140500Y-113726500D02*
X98687029Y-113726500D01*
X100360500Y-113726500D02*
X100360500Y-114931500D01*
X98140500Y-113726500D02*
X98140500Y-114931500D01*
X99558030Y-114931500D02*
X100360500Y-114931500D01*
X98140500Y-114931500D02*
X98942970Y-114931500D01*
%TO.C,J105*%
X95029000Y-112206500D02*
X96139000Y-112206500D01*
X95029000Y-112966500D02*
X95029000Y-112206500D01*
X96702471Y-113726500D02*
X97249000Y-113726500D01*
X95029000Y-113726500D02*
X95575529Y-113726500D01*
X97249000Y-113726500D02*
X97249000Y-114931500D01*
X95029000Y-113726500D02*
X95029000Y-114931500D01*
X96446530Y-114931500D02*
X97249000Y-114931500D01*
X95029000Y-114931500D02*
X95831470Y-114931500D01*
%TO.C,J104*%
X91917500Y-112206500D02*
X93027500Y-112206500D01*
X91917500Y-112966500D02*
X91917500Y-112206500D01*
X93590971Y-113726500D02*
X94137500Y-113726500D01*
X91917500Y-113726500D02*
X92464029Y-113726500D01*
X94137500Y-113726500D02*
X94137500Y-114931500D01*
X91917500Y-113726500D02*
X91917500Y-114931500D01*
X93335030Y-114931500D02*
X94137500Y-114931500D01*
X91917500Y-114931500D02*
X92719970Y-114931500D01*
%TO.C,J103*%
X88806000Y-112206500D02*
X89916000Y-112206500D01*
X88806000Y-112966500D02*
X88806000Y-112206500D01*
X90479471Y-113726500D02*
X91026000Y-113726500D01*
X88806000Y-113726500D02*
X89352529Y-113726500D01*
X91026000Y-113726500D02*
X91026000Y-114931500D01*
X88806000Y-113726500D02*
X88806000Y-114931500D01*
X90223530Y-114931500D02*
X91026000Y-114931500D01*
X88806000Y-114931500D02*
X89608470Y-114931500D01*
%TO.C,L1*%
X103605000Y-92819500D02*
X103605000Y-94080000D01*
X103605000Y-94080000D02*
X97055000Y-94080000D01*
X97055000Y-94080000D02*
X97055000Y-92819500D01*
X103605000Y-88790500D02*
X103605000Y-87530000D01*
X103605000Y-87530000D02*
X97055000Y-87530000D01*
X97055000Y-87530000D02*
X97055000Y-88790500D01*
%TO.C,J1*%
X115058500Y-113414500D02*
X112398500Y-113414500D01*
X115058500Y-116014500D02*
X115058500Y-113414500D01*
X112398500Y-116014500D02*
X112398500Y-113414500D01*
X115058500Y-116014500D02*
X112398500Y-116014500D01*
X115058500Y-117284500D02*
X115058500Y-118614500D01*
X115058500Y-118614500D02*
X113728500Y-118614500D01*
%TO.C,R3*%
X105131776Y-103109500D02*
X105641224Y-103109500D01*
X105131776Y-104154500D02*
X105641224Y-104154500D01*
%TO.C,R2*%
X98058500Y-102107276D02*
X98058500Y-102616724D01*
X97013500Y-102107276D02*
X97013500Y-102616724D01*
%TO.C,R4*%
X109298000Y-101368776D02*
X109298000Y-101878224D01*
X108253000Y-101368776D02*
X108253000Y-101878224D01*
%TO.C,R6*%
X109814276Y-93711500D02*
X110323724Y-93711500D01*
X109814276Y-94756500D02*
X110323724Y-94756500D01*
%TO.C,R5*%
X108253000Y-98258724D02*
X108253000Y-97749276D01*
X109298000Y-98258724D02*
X109298000Y-97749276D01*
%TO.C,J108*%
X87917000Y-100898000D02*
X88719470Y-100898000D01*
X89334530Y-100898000D02*
X90137000Y-100898000D01*
X87917000Y-97153000D02*
X87917000Y-100898000D01*
X90137000Y-97153000D02*
X90137000Y-100898000D01*
X87917000Y-97153000D02*
X88463529Y-97153000D01*
X89590471Y-97153000D02*
X90137000Y-97153000D01*
X87917000Y-96393000D02*
X87917000Y-95633000D01*
X87917000Y-95633000D02*
X89027000Y-95633000D01*
%TO.C,C7*%
X91057000Y-88702267D02*
X91057000Y-88409733D01*
X92077000Y-88702267D02*
X92077000Y-88409733D01*
%TO.C,C2*%
X92943000Y-89992252D02*
X92943000Y-88569748D01*
X94763000Y-89992252D02*
X94763000Y-88569748D01*
%TO.C,C3*%
X101480233Y-103122000D02*
X101772767Y-103122000D01*
X101480233Y-104142000D02*
X101772767Y-104142000D01*
%TO.C,C4*%
X103651267Y-96141000D02*
X103358733Y-96141000D01*
X103651267Y-95121000D02*
X103358733Y-95121000D01*
%TO.C,C1*%
X113009000Y-107670252D02*
X113009000Y-106247748D01*
X114829000Y-107670252D02*
X114829000Y-106247748D01*
%TO.C,C5*%
X110488000Y-98190267D02*
X110488000Y-97897733D01*
X111508000Y-98190267D02*
X111508000Y-97897733D01*
%TO.C,R108*%
X93344276Y-106538500D02*
X93853724Y-106538500D01*
X93344276Y-107583500D02*
X93853724Y-107583500D01*
%TO.C,R104*%
X106528776Y-107046500D02*
X107038224Y-107046500D01*
X106528776Y-108091500D02*
X107038224Y-108091500D01*
%TO.C,R109*%
X90473000Y-108228224D02*
X90473000Y-107718776D01*
X91518000Y-108228224D02*
X91518000Y-107718776D01*
%TO.C,R105*%
X104662500Y-108203276D02*
X104662500Y-108712724D01*
X103617500Y-108203276D02*
X103617500Y-108712724D01*
%TO.C,Q102*%
X94375000Y-111435000D02*
X94375000Y-110505000D01*
X94375000Y-108275000D02*
X94375000Y-109205000D01*
X94375000Y-108275000D02*
X92215000Y-108275000D01*
X94375000Y-111435000D02*
X92915000Y-111435000D01*
%TO.C,Q101*%
X107614500Y-111877000D02*
X107614500Y-110947000D01*
X107614500Y-108717000D02*
X107614500Y-109647000D01*
X107614500Y-108717000D02*
X105454500Y-108717000D01*
X107614500Y-111877000D02*
X106154500Y-111877000D01*
%TO.C,H1*%
D10*
X88519095Y-114727380D02*
X88519095Y-113727380D01*
X88519095Y-114203571D02*
X89090523Y-114203571D01*
X89090523Y-114727380D02*
X89090523Y-113727380D01*
X90090523Y-114727380D02*
X89519095Y-114727380D01*
X89804809Y-114727380D02*
X89804809Y-113727380D01*
X89709571Y-113870238D01*
X89614333Y-113965476D01*
X89519095Y-114013095D01*
%TO.C,J107*%
X87741285Y-85431380D02*
X87741285Y-86145666D01*
X87693666Y-86288523D01*
X87598428Y-86383761D01*
X87455571Y-86431380D01*
X87360333Y-86431380D01*
X88741285Y-86431380D02*
X88169857Y-86431380D01*
X88455571Y-86431380D02*
X88455571Y-85431380D01*
X88360333Y-85574238D01*
X88265095Y-85669476D01*
X88169857Y-85717095D01*
X89360333Y-85431380D02*
X89455571Y-85431380D01*
X89550809Y-85479000D01*
X89598428Y-85526619D01*
X89646047Y-85621857D01*
X89693666Y-85812333D01*
X89693666Y-86050428D01*
X89646047Y-86240904D01*
X89598428Y-86336142D01*
X89550809Y-86383761D01*
X89455571Y-86431380D01*
X89360333Y-86431380D01*
X89265095Y-86383761D01*
X89217476Y-86336142D01*
X89169857Y-86240904D01*
X89122238Y-86050428D01*
X89122238Y-85812333D01*
X89169857Y-85621857D01*
X89217476Y-85526619D01*
X89265095Y-85479000D01*
X89360333Y-85431380D01*
X90027000Y-85431380D02*
X90693666Y-85431380D01*
X90265095Y-86431380D01*
%TO.C,RV1*%
X94154880Y-98057238D02*
X93678690Y-98390571D01*
X94154880Y-98628666D02*
X93154880Y-98628666D01*
X93154880Y-98247714D01*
X93202500Y-98152476D01*
X93250119Y-98104857D01*
X93345357Y-98057238D01*
X93488214Y-98057238D01*
X93583452Y-98104857D01*
X93631071Y-98152476D01*
X93678690Y-98247714D01*
X93678690Y-98628666D01*
X93154880Y-97771523D02*
X94154880Y-97438190D01*
X93154880Y-97104857D01*
X94154880Y-96247714D02*
X94154880Y-96819142D01*
X94154880Y-96533428D02*
X93154880Y-96533428D01*
X93297738Y-96628666D01*
X93392976Y-96723904D01*
X93440595Y-96819142D01*
%TO.C,U1*%
X102616095Y-98575880D02*
X102616095Y-99385404D01*
X102663714Y-99480642D01*
X102711333Y-99528261D01*
X102806571Y-99575880D01*
X102997047Y-99575880D01*
X103092285Y-99528261D01*
X103139904Y-99480642D01*
X103187523Y-99385404D01*
X103187523Y-98575880D01*
X104187523Y-99575880D02*
X103616095Y-99575880D01*
X103901809Y-99575880D02*
X103901809Y-98575880D01*
X103806571Y-98718738D01*
X103711333Y-98813976D01*
X103616095Y-98861595D01*
%TO.C,D102*%
X97433023Y-106624380D02*
X97433023Y-105624380D01*
X97671119Y-105624380D01*
X97813976Y-105672000D01*
X97909214Y-105767238D01*
X97956833Y-105862476D01*
X98004452Y-106052952D01*
X98004452Y-106195809D01*
X97956833Y-106386285D01*
X97909214Y-106481523D01*
X97813976Y-106576761D01*
X97671119Y-106624380D01*
X97433023Y-106624380D01*
X98956833Y-106624380D02*
X98385404Y-106624380D01*
X98671119Y-106624380D02*
X98671119Y-105624380D01*
X98575880Y-105767238D01*
X98480642Y-105862476D01*
X98385404Y-105910095D01*
X99575880Y-105624380D02*
X99671119Y-105624380D01*
X99766357Y-105672000D01*
X99813976Y-105719619D01*
X99861595Y-105814857D01*
X99909214Y-106005333D01*
X99909214Y-106243428D01*
X99861595Y-106433904D01*
X99813976Y-106529142D01*
X99766357Y-106576761D01*
X99671119Y-106624380D01*
X99575880Y-106624380D01*
X99480642Y-106576761D01*
X99433023Y-106529142D01*
X99385404Y-106433904D01*
X99337785Y-106243428D01*
X99337785Y-106005333D01*
X99385404Y-105814857D01*
X99433023Y-105719619D01*
X99480642Y-105672000D01*
X99575880Y-105624380D01*
X100290166Y-105719619D02*
X100337785Y-105672000D01*
X100433023Y-105624380D01*
X100671119Y-105624380D01*
X100766357Y-105672000D01*
X100813976Y-105719619D01*
X100861595Y-105814857D01*
X100861595Y-105910095D01*
X100813976Y-106052952D01*
X100242547Y-106624380D01*
X100861595Y-106624380D01*
%TO.C,D101*%
X112673023Y-110942380D02*
X112673023Y-109942380D01*
X112911119Y-109942380D01*
X113053976Y-109990000D01*
X113149214Y-110085238D01*
X113196833Y-110180476D01*
X113244452Y-110370952D01*
X113244452Y-110513809D01*
X113196833Y-110704285D01*
X113149214Y-110799523D01*
X113053976Y-110894761D01*
X112911119Y-110942380D01*
X112673023Y-110942380D01*
X114196833Y-110942380D02*
X113625404Y-110942380D01*
X113911119Y-110942380D02*
X113911119Y-109942380D01*
X113815880Y-110085238D01*
X113720642Y-110180476D01*
X113625404Y-110228095D01*
X114815880Y-109942380D02*
X114911119Y-109942380D01*
X115006357Y-109990000D01*
X115053976Y-110037619D01*
X115101595Y-110132857D01*
X115149214Y-110323333D01*
X115149214Y-110561428D01*
X115101595Y-110751904D01*
X115053976Y-110847142D01*
X115006357Y-110894761D01*
X114911119Y-110942380D01*
X114815880Y-110942380D01*
X114720642Y-110894761D01*
X114673023Y-110847142D01*
X114625404Y-110751904D01*
X114577785Y-110561428D01*
X114577785Y-110323333D01*
X114625404Y-110132857D01*
X114673023Y-110037619D01*
X114720642Y-109990000D01*
X114815880Y-109942380D01*
X116101595Y-110942380D02*
X115530166Y-110942380D01*
X115815880Y-110942380D02*
X115815880Y-109942380D01*
X115720642Y-110085238D01*
X115625404Y-110180476D01*
X115530166Y-110228095D01*
%TO.C,D1*%
X108366904Y-88399880D02*
X108366904Y-87399880D01*
X108605000Y-87399880D01*
X108747857Y-87447500D01*
X108843095Y-87542738D01*
X108890714Y-87637976D01*
X108938333Y-87828452D01*
X108938333Y-87971309D01*
X108890714Y-88161785D01*
X108843095Y-88257023D01*
X108747857Y-88352261D01*
X108605000Y-88399880D01*
X108366904Y-88399880D01*
X109890714Y-88399880D02*
X109319285Y-88399880D01*
X109605000Y-88399880D02*
X109605000Y-87399880D01*
X109509761Y-87542738D01*
X109414523Y-87637976D01*
X109319285Y-87685595D01*
%TO.C,J101*%
X105902285Y-117054380D02*
X105902285Y-117768666D01*
X105854666Y-117911523D01*
X105759428Y-118006761D01*
X105616571Y-118054380D01*
X105521333Y-118054380D01*
X106902285Y-118054380D02*
X106330857Y-118054380D01*
X106616571Y-118054380D02*
X106616571Y-117054380D01*
X106521333Y-117197238D01*
X106426095Y-117292476D01*
X106330857Y-117340095D01*
X107521333Y-117054380D02*
X107616571Y-117054380D01*
X107711809Y-117102000D01*
X107759428Y-117149619D01*
X107807047Y-117244857D01*
X107854666Y-117435333D01*
X107854666Y-117673428D01*
X107807047Y-117863904D01*
X107759428Y-117959142D01*
X107711809Y-118006761D01*
X107616571Y-118054380D01*
X107521333Y-118054380D01*
X107426095Y-118006761D01*
X107378476Y-117959142D01*
X107330857Y-117863904D01*
X107283238Y-117673428D01*
X107283238Y-117435333D01*
X107330857Y-117244857D01*
X107378476Y-117149619D01*
X107426095Y-117102000D01*
X107521333Y-117054380D01*
X108807047Y-118054380D02*
X108235619Y-118054380D01*
X108521333Y-118054380D02*
X108521333Y-117054380D01*
X108426095Y-117197238D01*
X108330857Y-117292476D01*
X108235619Y-117340095D01*
%TO.C,J102*%
X102092285Y-113752380D02*
X102092285Y-114466666D01*
X102044666Y-114609523D01*
X101949428Y-114704761D01*
X101806571Y-114752380D01*
X101711333Y-114752380D01*
X103092285Y-114752380D02*
X102520857Y-114752380D01*
X102806571Y-114752380D02*
X102806571Y-113752380D01*
X102711333Y-113895238D01*
X102616095Y-113990476D01*
X102520857Y-114038095D01*
X103711333Y-113752380D02*
X103806571Y-113752380D01*
X103901809Y-113800000D01*
X103949428Y-113847619D01*
X103997047Y-113942857D01*
X104044666Y-114133333D01*
X104044666Y-114371428D01*
X103997047Y-114561904D01*
X103949428Y-114657142D01*
X103901809Y-114704761D01*
X103806571Y-114752380D01*
X103711333Y-114752380D01*
X103616095Y-114704761D01*
X103568476Y-114657142D01*
X103520857Y-114561904D01*
X103473238Y-114371428D01*
X103473238Y-114133333D01*
X103520857Y-113942857D01*
X103568476Y-113847619D01*
X103616095Y-113800000D01*
X103711333Y-113752380D01*
X104425619Y-113847619D02*
X104473238Y-113800000D01*
X104568476Y-113752380D01*
X104806571Y-113752380D01*
X104901809Y-113800000D01*
X104949428Y-113847619D01*
X104997047Y-113942857D01*
X104997047Y-114038095D01*
X104949428Y-114180952D01*
X104378000Y-114752380D01*
X104997047Y-114752380D01*
%TO.C,J106*%
X98028285Y-110704380D02*
X98028285Y-111418666D01*
X97980666Y-111561523D01*
X97885428Y-111656761D01*
X97742571Y-111704380D01*
X97647333Y-111704380D01*
X99028285Y-111704380D02*
X98456857Y-111704380D01*
X98742571Y-111704380D02*
X98742571Y-110704380D01*
X98647333Y-110847238D01*
X98552095Y-110942476D01*
X98456857Y-110990095D01*
X99647333Y-110704380D02*
X99742571Y-110704380D01*
X99837809Y-110752000D01*
X99885428Y-110799619D01*
X99933047Y-110894857D01*
X99980666Y-111085333D01*
X99980666Y-111323428D01*
X99933047Y-111513904D01*
X99885428Y-111609142D01*
X99837809Y-111656761D01*
X99742571Y-111704380D01*
X99647333Y-111704380D01*
X99552095Y-111656761D01*
X99504476Y-111609142D01*
X99456857Y-111513904D01*
X99409238Y-111323428D01*
X99409238Y-111085333D01*
X99456857Y-110894857D01*
X99504476Y-110799619D01*
X99552095Y-110752000D01*
X99647333Y-110704380D01*
X100837809Y-110704380D02*
X100647333Y-110704380D01*
X100552095Y-110752000D01*
X100504476Y-110799619D01*
X100409238Y-110942476D01*
X100361619Y-111132952D01*
X100361619Y-111513904D01*
X100409238Y-111609142D01*
X100456857Y-111656761D01*
X100552095Y-111704380D01*
X100742571Y-111704380D01*
X100837809Y-111656761D01*
X100885428Y-111609142D01*
X100933047Y-111513904D01*
X100933047Y-111275809D01*
X100885428Y-111180571D01*
X100837809Y-111132952D01*
X100742571Y-111085333D01*
X100552095Y-111085333D01*
X100456857Y-111132952D01*
X100409238Y-111180571D01*
X100361619Y-111275809D01*
%TO.C,J105*%
X95107285Y-115657380D02*
X95107285Y-116371666D01*
X95059666Y-116514523D01*
X94964428Y-116609761D01*
X94821571Y-116657380D01*
X94726333Y-116657380D01*
X96107285Y-116657380D02*
X95535857Y-116657380D01*
X95821571Y-116657380D02*
X95821571Y-115657380D01*
X95726333Y-115800238D01*
X95631095Y-115895476D01*
X95535857Y-115943095D01*
X96726333Y-115657380D02*
X96821571Y-115657380D01*
X96916809Y-115705000D01*
X96964428Y-115752619D01*
X97012047Y-115847857D01*
X97059666Y-116038333D01*
X97059666Y-116276428D01*
X97012047Y-116466904D01*
X96964428Y-116562142D01*
X96916809Y-116609761D01*
X96821571Y-116657380D01*
X96726333Y-116657380D01*
X96631095Y-116609761D01*
X96583476Y-116562142D01*
X96535857Y-116466904D01*
X96488238Y-116276428D01*
X96488238Y-116038333D01*
X96535857Y-115847857D01*
X96583476Y-115752619D01*
X96631095Y-115705000D01*
X96726333Y-115657380D01*
X97964428Y-115657380D02*
X97488238Y-115657380D01*
X97440619Y-116133571D01*
X97488238Y-116085952D01*
X97583476Y-116038333D01*
X97821571Y-116038333D01*
X97916809Y-116085952D01*
X97964428Y-116133571D01*
X98012047Y-116228809D01*
X98012047Y-116466904D01*
X97964428Y-116562142D01*
X97916809Y-116609761D01*
X97821571Y-116657380D01*
X97583476Y-116657380D01*
X97488238Y-116609761D01*
X97440619Y-116562142D01*
%TO.C,J104*%
X91551285Y-115657380D02*
X91551285Y-116371666D01*
X91503666Y-116514523D01*
X91408428Y-116609761D01*
X91265571Y-116657380D01*
X91170333Y-116657380D01*
X92551285Y-116657380D02*
X91979857Y-116657380D01*
X92265571Y-116657380D02*
X92265571Y-115657380D01*
X92170333Y-115800238D01*
X92075095Y-115895476D01*
X91979857Y-115943095D01*
X93170333Y-115657380D02*
X93265571Y-115657380D01*
X93360809Y-115705000D01*
X93408428Y-115752619D01*
X93456047Y-115847857D01*
X93503666Y-116038333D01*
X93503666Y-116276428D01*
X93456047Y-116466904D01*
X93408428Y-116562142D01*
X93360809Y-116609761D01*
X93265571Y-116657380D01*
X93170333Y-116657380D01*
X93075095Y-116609761D01*
X93027476Y-116562142D01*
X92979857Y-116466904D01*
X92932238Y-116276428D01*
X92932238Y-116038333D01*
X92979857Y-115847857D01*
X93027476Y-115752619D01*
X93075095Y-115705000D01*
X93170333Y-115657380D01*
X94360809Y-115990714D02*
X94360809Y-116657380D01*
X94122714Y-115609761D02*
X93884619Y-116324047D01*
X94503666Y-116324047D01*
%TO.C,J103*%
X87336380Y-115077714D02*
X88050666Y-115077714D01*
X88193523Y-115125333D01*
X88288761Y-115220571D01*
X88336380Y-115363428D01*
X88336380Y-115458666D01*
X88336380Y-114077714D02*
X88336380Y-114649142D01*
X88336380Y-114363428D02*
X87336380Y-114363428D01*
X87479238Y-114458666D01*
X87574476Y-114553904D01*
X87622095Y-114649142D01*
X87336380Y-113458666D02*
X87336380Y-113363428D01*
X87384000Y-113268190D01*
X87431619Y-113220571D01*
X87526857Y-113172952D01*
X87717333Y-113125333D01*
X87955428Y-113125333D01*
X88145904Y-113172952D01*
X88241142Y-113220571D01*
X88288761Y-113268190D01*
X88336380Y-113363428D01*
X88336380Y-113458666D01*
X88288761Y-113553904D01*
X88241142Y-113601523D01*
X88145904Y-113649142D01*
X87955428Y-113696761D01*
X87717333Y-113696761D01*
X87526857Y-113649142D01*
X87431619Y-113601523D01*
X87384000Y-113553904D01*
X87336380Y-113458666D01*
X87336380Y-112792000D02*
X87336380Y-112172952D01*
X87717333Y-112506285D01*
X87717333Y-112363428D01*
X87764952Y-112268190D01*
X87812571Y-112220571D01*
X87907809Y-112172952D01*
X88145904Y-112172952D01*
X88241142Y-112220571D01*
X88288761Y-112268190D01*
X88336380Y-112363428D01*
X88336380Y-112649142D01*
X88288761Y-112744380D01*
X88241142Y-112792000D01*
%TO.C,L1*%
X100163333Y-91765380D02*
X99687142Y-91765380D01*
X99687142Y-90765380D01*
X101020476Y-91765380D02*
X100449047Y-91765380D01*
X100734761Y-91765380D02*
X100734761Y-90765380D01*
X100639523Y-90908238D01*
X100544285Y-91003476D01*
X100449047Y-91051095D01*
%TO.C,J1*%
X113458666Y-111720380D02*
X113458666Y-112434666D01*
X113411047Y-112577523D01*
X113315809Y-112672761D01*
X113172952Y-112720380D01*
X113077714Y-112720380D01*
X114458666Y-112720380D02*
X113887238Y-112720380D01*
X114172952Y-112720380D02*
X114172952Y-111720380D01*
X114077714Y-111863238D01*
X113982476Y-111958476D01*
X113887238Y-112006095D01*
%TO.C,R3*%
X105116333Y-105354380D02*
X104783000Y-104878190D01*
X104544904Y-105354380D02*
X104544904Y-104354380D01*
X104925857Y-104354380D01*
X105021095Y-104402000D01*
X105068714Y-104449619D01*
X105116333Y-104544857D01*
X105116333Y-104687714D01*
X105068714Y-104782952D01*
X105021095Y-104830571D01*
X104925857Y-104878190D01*
X104544904Y-104878190D01*
X105449666Y-104354380D02*
X106068714Y-104354380D01*
X105735380Y-104735333D01*
X105878238Y-104735333D01*
X105973476Y-104782952D01*
X106021095Y-104830571D01*
X106068714Y-104925809D01*
X106068714Y-105163904D01*
X106021095Y-105259142D01*
X105973476Y-105306761D01*
X105878238Y-105354380D01*
X105592523Y-105354380D01*
X105497285Y-105306761D01*
X105449666Y-105259142D01*
%TO.C,R2*%
X96591380Y-102528666D02*
X96115190Y-102862000D01*
X96591380Y-103100095D02*
X95591380Y-103100095D01*
X95591380Y-102719142D01*
X95639000Y-102623904D01*
X95686619Y-102576285D01*
X95781857Y-102528666D01*
X95924714Y-102528666D01*
X96019952Y-102576285D01*
X96067571Y-102623904D01*
X96115190Y-102719142D01*
X96115190Y-103100095D01*
X95686619Y-102147714D02*
X95639000Y-102100095D01*
X95591380Y-102004857D01*
X95591380Y-101766761D01*
X95639000Y-101671523D01*
X95686619Y-101623904D01*
X95781857Y-101576285D01*
X95877095Y-101576285D01*
X96019952Y-101623904D01*
X96591380Y-102195333D01*
X96591380Y-101576285D01*
%TO.C,R4*%
X108799333Y-104592380D02*
X108466000Y-104116190D01*
X108227904Y-104592380D02*
X108227904Y-103592380D01*
X108608857Y-103592380D01*
X108704095Y-103640000D01*
X108751714Y-103687619D01*
X108799333Y-103782857D01*
X108799333Y-103925714D01*
X108751714Y-104020952D01*
X108704095Y-104068571D01*
X108608857Y-104116190D01*
X108227904Y-104116190D01*
X109656476Y-103925714D02*
X109656476Y-104592380D01*
X109418380Y-103544761D02*
X109180285Y-104259047D01*
X109799333Y-104259047D01*
%TO.C,R6*%
X112990333Y-94749880D02*
X112657000Y-94273690D01*
X112418904Y-94749880D02*
X112418904Y-93749880D01*
X112799857Y-93749880D01*
X112895095Y-93797500D01*
X112942714Y-93845119D01*
X112990333Y-93940357D01*
X112990333Y-94083214D01*
X112942714Y-94178452D01*
X112895095Y-94226071D01*
X112799857Y-94273690D01*
X112418904Y-94273690D01*
X113847476Y-93749880D02*
X113657000Y-93749880D01*
X113561761Y-93797500D01*
X113514142Y-93845119D01*
X113418904Y-93987976D01*
X113371285Y-94178452D01*
X113371285Y-94559404D01*
X113418904Y-94654642D01*
X113466523Y-94702261D01*
X113561761Y-94749880D01*
X113752238Y-94749880D01*
X113847476Y-94702261D01*
X113895095Y-94654642D01*
X113942714Y-94559404D01*
X113942714Y-94321309D01*
X113895095Y-94226071D01*
X113847476Y-94178452D01*
X113752238Y-94130833D01*
X113561761Y-94130833D01*
X113466523Y-94178452D01*
X113418904Y-94226071D01*
X113371285Y-94321309D01*
%TO.C,R5*%
X108608833Y-96146880D02*
X108275500Y-95670690D01*
X108037404Y-96146880D02*
X108037404Y-95146880D01*
X108418357Y-95146880D01*
X108513595Y-95194500D01*
X108561214Y-95242119D01*
X108608833Y-95337357D01*
X108608833Y-95480214D01*
X108561214Y-95575452D01*
X108513595Y-95623071D01*
X108418357Y-95670690D01*
X108037404Y-95670690D01*
X109513595Y-95146880D02*
X109037404Y-95146880D01*
X108989785Y-95623071D01*
X109037404Y-95575452D01*
X109132642Y-95527833D01*
X109370738Y-95527833D01*
X109465976Y-95575452D01*
X109513595Y-95623071D01*
X109561214Y-95718309D01*
X109561214Y-95956404D01*
X109513595Y-96051642D01*
X109465976Y-96099261D01*
X109370738Y-96146880D01*
X109132642Y-96146880D01*
X109037404Y-96099261D01*
X108989785Y-96051642D01*
%TO.C,J108*%
X87741285Y-94150380D02*
X87741285Y-94864666D01*
X87693666Y-95007523D01*
X87598428Y-95102761D01*
X87455571Y-95150380D01*
X87360333Y-95150380D01*
X88741285Y-95150380D02*
X88169857Y-95150380D01*
X88455571Y-95150380D02*
X88455571Y-94150380D01*
X88360333Y-94293238D01*
X88265095Y-94388476D01*
X88169857Y-94436095D01*
X89360333Y-94150380D02*
X89455571Y-94150380D01*
X89550809Y-94198000D01*
X89598428Y-94245619D01*
X89646047Y-94340857D01*
X89693666Y-94531333D01*
X89693666Y-94769428D01*
X89646047Y-94959904D01*
X89598428Y-95055142D01*
X89550809Y-95102761D01*
X89455571Y-95150380D01*
X89360333Y-95150380D01*
X89265095Y-95102761D01*
X89217476Y-95055142D01*
X89169857Y-94959904D01*
X89122238Y-94769428D01*
X89122238Y-94531333D01*
X89169857Y-94340857D01*
X89217476Y-94245619D01*
X89265095Y-94198000D01*
X89360333Y-94150380D01*
X90265095Y-94578952D02*
X90169857Y-94531333D01*
X90122238Y-94483714D01*
X90074619Y-94388476D01*
X90074619Y-94340857D01*
X90122238Y-94245619D01*
X90169857Y-94198000D01*
X90265095Y-94150380D01*
X90455571Y-94150380D01*
X90550809Y-94198000D01*
X90598428Y-94245619D01*
X90646047Y-94340857D01*
X90646047Y-94388476D01*
X90598428Y-94483714D01*
X90550809Y-94531333D01*
X90455571Y-94578952D01*
X90265095Y-94578952D01*
X90169857Y-94626571D01*
X90122238Y-94674190D01*
X90074619Y-94769428D01*
X90074619Y-94959904D01*
X90122238Y-95055142D01*
X90169857Y-95102761D01*
X90265095Y-95150380D01*
X90455571Y-95150380D01*
X90550809Y-95102761D01*
X90598428Y-95055142D01*
X90646047Y-94959904D01*
X90646047Y-94769428D01*
X90598428Y-94674190D01*
X90550809Y-94626571D01*
X90455571Y-94578952D01*
%TO.C,C7*%
X91400333Y-91797142D02*
X91352714Y-91844761D01*
X91209857Y-91892380D01*
X91114619Y-91892380D01*
X90971761Y-91844761D01*
X90876523Y-91749523D01*
X90828904Y-91654285D01*
X90781285Y-91463809D01*
X90781285Y-91320952D01*
X90828904Y-91130476D01*
X90876523Y-91035238D01*
X90971761Y-90940000D01*
X91114619Y-90892380D01*
X91209857Y-90892380D01*
X91352714Y-90940000D01*
X91400333Y-90987619D01*
X91733666Y-90892380D02*
X92400333Y-90892380D01*
X91971761Y-91892380D01*
%TO.C,C2*%
X93749833Y-93130642D02*
X93702214Y-93178261D01*
X93559357Y-93225880D01*
X93464119Y-93225880D01*
X93321261Y-93178261D01*
X93226023Y-93083023D01*
X93178404Y-92987785D01*
X93130785Y-92797309D01*
X93130785Y-92654452D01*
X93178404Y-92463976D01*
X93226023Y-92368738D01*
X93321261Y-92273500D01*
X93464119Y-92225880D01*
X93559357Y-92225880D01*
X93702214Y-92273500D01*
X93749833Y-92321119D01*
X94130785Y-92321119D02*
X94178404Y-92273500D01*
X94273642Y-92225880D01*
X94511738Y-92225880D01*
X94606976Y-92273500D01*
X94654595Y-92321119D01*
X94702214Y-92416357D01*
X94702214Y-92511595D01*
X94654595Y-92654452D01*
X94083166Y-93225880D01*
X94702214Y-93225880D01*
%TO.C,C3*%
X101306333Y-105259142D02*
X101258714Y-105306761D01*
X101115857Y-105354380D01*
X101020619Y-105354380D01*
X100877761Y-105306761D01*
X100782523Y-105211523D01*
X100734904Y-105116285D01*
X100687285Y-104925809D01*
X100687285Y-104782952D01*
X100734904Y-104592476D01*
X100782523Y-104497238D01*
X100877761Y-104402000D01*
X101020619Y-104354380D01*
X101115857Y-104354380D01*
X101258714Y-104402000D01*
X101306333Y-104449619D01*
X101639666Y-104354380D02*
X102258714Y-104354380D01*
X101925380Y-104735333D01*
X102068238Y-104735333D01*
X102163476Y-104782952D01*
X102211095Y-104830571D01*
X102258714Y-104925809D01*
X102258714Y-105163904D01*
X102211095Y-105259142D01*
X102163476Y-105306761D01*
X102068238Y-105354380D01*
X101782523Y-105354380D01*
X101687285Y-105306761D01*
X101639666Y-105259142D01*
%TO.C,C4*%
X100671333Y-95988142D02*
X100623714Y-96035761D01*
X100480857Y-96083380D01*
X100385619Y-96083380D01*
X100242761Y-96035761D01*
X100147523Y-95940523D01*
X100099904Y-95845285D01*
X100052285Y-95654809D01*
X100052285Y-95511952D01*
X100099904Y-95321476D01*
X100147523Y-95226238D01*
X100242761Y-95131000D01*
X100385619Y-95083380D01*
X100480857Y-95083380D01*
X100623714Y-95131000D01*
X100671333Y-95178619D01*
X101528476Y-95416714D02*
X101528476Y-96083380D01*
X101290380Y-95035761D02*
X101052285Y-95750047D01*
X101671333Y-95750047D01*
%TO.C,C1*%
X115657333Y-107354642D02*
X115609714Y-107402261D01*
X115466857Y-107449880D01*
X115371619Y-107449880D01*
X115228761Y-107402261D01*
X115133523Y-107307023D01*
X115085904Y-107211785D01*
X115038285Y-107021309D01*
X115038285Y-106878452D01*
X115085904Y-106687976D01*
X115133523Y-106592738D01*
X115228761Y-106497500D01*
X115371619Y-106449880D01*
X115466857Y-106449880D01*
X115609714Y-106497500D01*
X115657333Y-106545119D01*
X116609714Y-107449880D02*
X116038285Y-107449880D01*
X116324000Y-107449880D02*
X116324000Y-106449880D01*
X116228761Y-106592738D01*
X116133523Y-106687976D01*
X116038285Y-106735595D01*
%TO.C,C5*%
X112736333Y-97385142D02*
X112688714Y-97432761D01*
X112545857Y-97480380D01*
X112450619Y-97480380D01*
X112307761Y-97432761D01*
X112212523Y-97337523D01*
X112164904Y-97242285D01*
X112117285Y-97051809D01*
X112117285Y-96908952D01*
X112164904Y-96718476D01*
X112212523Y-96623238D01*
X112307761Y-96528000D01*
X112450619Y-96480380D01*
X112545857Y-96480380D01*
X112688714Y-96528000D01*
X112736333Y-96575619D01*
X113641095Y-96480380D02*
X113164904Y-96480380D01*
X113117285Y-96956571D01*
X113164904Y-96908952D01*
X113260142Y-96861333D01*
X113498238Y-96861333D01*
X113593476Y-96908952D01*
X113641095Y-96956571D01*
X113688714Y-97051809D01*
X113688714Y-97289904D01*
X113641095Y-97385142D01*
X113593476Y-97432761D01*
X113498238Y-97480380D01*
X113260142Y-97480380D01*
X113164904Y-97432761D01*
X113117285Y-97385142D01*
%TO.C,R108*%
X92479952Y-106083380D02*
X92146619Y-105607190D01*
X91908523Y-106083380D02*
X91908523Y-105083380D01*
X92289476Y-105083380D01*
X92384714Y-105131000D01*
X92432333Y-105178619D01*
X92479952Y-105273857D01*
X92479952Y-105416714D01*
X92432333Y-105511952D01*
X92384714Y-105559571D01*
X92289476Y-105607190D01*
X91908523Y-105607190D01*
X93432333Y-106083380D02*
X92860904Y-106083380D01*
X93146619Y-106083380D02*
X93146619Y-105083380D01*
X93051380Y-105226238D01*
X92956142Y-105321476D01*
X92860904Y-105369095D01*
X94051380Y-105083380D02*
X94146619Y-105083380D01*
X94241857Y-105131000D01*
X94289476Y-105178619D01*
X94337095Y-105273857D01*
X94384714Y-105464333D01*
X94384714Y-105702428D01*
X94337095Y-105892904D01*
X94289476Y-105988142D01*
X94241857Y-106035761D01*
X94146619Y-106083380D01*
X94051380Y-106083380D01*
X93956142Y-106035761D01*
X93908523Y-105988142D01*
X93860904Y-105892904D01*
X93813285Y-105702428D01*
X93813285Y-105464333D01*
X93860904Y-105273857D01*
X93908523Y-105178619D01*
X93956142Y-105131000D01*
X94051380Y-105083380D01*
X94956142Y-105511952D02*
X94860904Y-105464333D01*
X94813285Y-105416714D01*
X94765666Y-105321476D01*
X94765666Y-105273857D01*
X94813285Y-105178619D01*
X94860904Y-105131000D01*
X94956142Y-105083380D01*
X95146619Y-105083380D01*
X95241857Y-105131000D01*
X95289476Y-105178619D01*
X95337095Y-105273857D01*
X95337095Y-105321476D01*
X95289476Y-105416714D01*
X95241857Y-105464333D01*
X95146619Y-105511952D01*
X94956142Y-105511952D01*
X94860904Y-105559571D01*
X94813285Y-105607190D01*
X94765666Y-105702428D01*
X94765666Y-105892904D01*
X94813285Y-105988142D01*
X94860904Y-106035761D01*
X94956142Y-106083380D01*
X95146619Y-106083380D01*
X95241857Y-106035761D01*
X95289476Y-105988142D01*
X95337095Y-105892904D01*
X95337095Y-105702428D01*
X95289476Y-105607190D01*
X95241857Y-105559571D01*
X95146619Y-105511952D01*
%TO.C,R104*%
X105664452Y-106591380D02*
X105331119Y-106115190D01*
X105093023Y-106591380D02*
X105093023Y-105591380D01*
X105473976Y-105591380D01*
X105569214Y-105639000D01*
X105616833Y-105686619D01*
X105664452Y-105781857D01*
X105664452Y-105924714D01*
X105616833Y-106019952D01*
X105569214Y-106067571D01*
X105473976Y-106115190D01*
X105093023Y-106115190D01*
X106616833Y-106591380D02*
X106045404Y-106591380D01*
X106331119Y-106591380D02*
X106331119Y-105591380D01*
X106235880Y-105734238D01*
X106140642Y-105829476D01*
X106045404Y-105877095D01*
X107235880Y-105591380D02*
X107331119Y-105591380D01*
X107426357Y-105639000D01*
X107473976Y-105686619D01*
X107521595Y-105781857D01*
X107569214Y-105972333D01*
X107569214Y-106210428D01*
X107521595Y-106400904D01*
X107473976Y-106496142D01*
X107426357Y-106543761D01*
X107331119Y-106591380D01*
X107235880Y-106591380D01*
X107140642Y-106543761D01*
X107093023Y-106496142D01*
X107045404Y-106400904D01*
X106997785Y-106210428D01*
X106997785Y-105972333D01*
X107045404Y-105781857D01*
X107093023Y-105686619D01*
X107140642Y-105639000D01*
X107235880Y-105591380D01*
X108426357Y-105924714D02*
X108426357Y-106591380D01*
X108188261Y-105543761D02*
X107950166Y-106258047D01*
X108569214Y-106258047D01*
%TO.C,R109*%
X91511380Y-105640047D02*
X91035190Y-105973380D01*
X91511380Y-106211476D02*
X90511380Y-106211476D01*
X90511380Y-105830523D01*
X90559000Y-105735285D01*
X90606619Y-105687666D01*
X90701857Y-105640047D01*
X90844714Y-105640047D01*
X90939952Y-105687666D01*
X90987571Y-105735285D01*
X91035190Y-105830523D01*
X91035190Y-106211476D01*
X91511380Y-104687666D02*
X91511380Y-105259095D01*
X91511380Y-104973380D02*
X90511380Y-104973380D01*
X90654238Y-105068619D01*
X90749476Y-105163857D01*
X90797095Y-105259095D01*
X90511380Y-104068619D02*
X90511380Y-103973380D01*
X90559000Y-103878142D01*
X90606619Y-103830523D01*
X90701857Y-103782904D01*
X90892333Y-103735285D01*
X91130428Y-103735285D01*
X91320904Y-103782904D01*
X91416142Y-103830523D01*
X91463761Y-103878142D01*
X91511380Y-103973380D01*
X91511380Y-104068619D01*
X91463761Y-104163857D01*
X91416142Y-104211476D01*
X91320904Y-104259095D01*
X91130428Y-104306714D01*
X90892333Y-104306714D01*
X90701857Y-104259095D01*
X90606619Y-104211476D01*
X90559000Y-104163857D01*
X90511380Y-104068619D01*
X91511380Y-103259095D02*
X91511380Y-103068619D01*
X91463761Y-102973380D01*
X91416142Y-102925761D01*
X91273285Y-102830523D01*
X91082809Y-102782904D01*
X90701857Y-102782904D01*
X90606619Y-102830523D01*
X90559000Y-102878142D01*
X90511380Y-102973380D01*
X90511380Y-103163857D01*
X90559000Y-103259095D01*
X90606619Y-103306714D01*
X90701857Y-103354333D01*
X90939952Y-103354333D01*
X91035190Y-103306714D01*
X91082809Y-103259095D01*
X91130428Y-103163857D01*
X91130428Y-102973380D01*
X91082809Y-102878142D01*
X91035190Y-102830523D01*
X90939952Y-102782904D01*
%TO.C,R105*%
X102068452Y-111386880D02*
X101735119Y-110910690D01*
X101497023Y-111386880D02*
X101497023Y-110386880D01*
X101877976Y-110386880D01*
X101973214Y-110434500D01*
X102020833Y-110482119D01*
X102068452Y-110577357D01*
X102068452Y-110720214D01*
X102020833Y-110815452D01*
X101973214Y-110863071D01*
X101877976Y-110910690D01*
X101497023Y-110910690D01*
X103020833Y-111386880D02*
X102449404Y-111386880D01*
X102735119Y-111386880D02*
X102735119Y-110386880D01*
X102639880Y-110529738D01*
X102544642Y-110624976D01*
X102449404Y-110672595D01*
X103639880Y-110386880D02*
X103735119Y-110386880D01*
X103830357Y-110434500D01*
X103877976Y-110482119D01*
X103925595Y-110577357D01*
X103973214Y-110767833D01*
X103973214Y-111005928D01*
X103925595Y-111196404D01*
X103877976Y-111291642D01*
X103830357Y-111339261D01*
X103735119Y-111386880D01*
X103639880Y-111386880D01*
X103544642Y-111339261D01*
X103497023Y-111291642D01*
X103449404Y-111196404D01*
X103401785Y-111005928D01*
X103401785Y-110767833D01*
X103449404Y-110577357D01*
X103497023Y-110482119D01*
X103544642Y-110434500D01*
X103639880Y-110386880D01*
X104877976Y-110386880D02*
X104401785Y-110386880D01*
X104354166Y-110863071D01*
X104401785Y-110815452D01*
X104497023Y-110767833D01*
X104735119Y-110767833D01*
X104830357Y-110815452D01*
X104877976Y-110863071D01*
X104925595Y-110958309D01*
X104925595Y-111196404D01*
X104877976Y-111291642D01*
X104830357Y-111339261D01*
X104735119Y-111386880D01*
X104497023Y-111386880D01*
X104401785Y-111339261D01*
X104354166Y-111291642D01*
%TO.C,Q102*%
X88614380Y-111164619D02*
X88519142Y-111117000D01*
X88423904Y-111021761D01*
X88281047Y-110878904D01*
X88185809Y-110831285D01*
X88090571Y-110831285D01*
X88138190Y-111069380D02*
X88042952Y-111021761D01*
X87947714Y-110926523D01*
X87900095Y-110736047D01*
X87900095Y-110402714D01*
X87947714Y-110212238D01*
X88042952Y-110117000D01*
X88138190Y-110069380D01*
X88328666Y-110069380D01*
X88423904Y-110117000D01*
X88519142Y-110212238D01*
X88566761Y-110402714D01*
X88566761Y-110736047D01*
X88519142Y-110926523D01*
X88423904Y-111021761D01*
X88328666Y-111069380D01*
X88138190Y-111069380D01*
X89519142Y-111069380D02*
X88947714Y-111069380D01*
X89233428Y-111069380D02*
X89233428Y-110069380D01*
X89138190Y-110212238D01*
X89042952Y-110307476D01*
X88947714Y-110355095D01*
X90138190Y-110069380D02*
X90233428Y-110069380D01*
X90328666Y-110117000D01*
X90376285Y-110164619D01*
X90423904Y-110259857D01*
X90471523Y-110450333D01*
X90471523Y-110688428D01*
X90423904Y-110878904D01*
X90376285Y-110974142D01*
X90328666Y-111021761D01*
X90233428Y-111069380D01*
X90138190Y-111069380D01*
X90042952Y-111021761D01*
X89995333Y-110974142D01*
X89947714Y-110878904D01*
X89900095Y-110688428D01*
X89900095Y-110450333D01*
X89947714Y-110259857D01*
X89995333Y-110164619D01*
X90042952Y-110117000D01*
X90138190Y-110069380D01*
X90852476Y-110164619D02*
X90900095Y-110117000D01*
X90995333Y-110069380D01*
X91233428Y-110069380D01*
X91328666Y-110117000D01*
X91376285Y-110164619D01*
X91423904Y-110259857D01*
X91423904Y-110355095D01*
X91376285Y-110497952D01*
X90804857Y-111069380D01*
X91423904Y-111069380D01*
%TO.C,Q101*%
X102203380Y-112688619D02*
X102108142Y-112641000D01*
X102012904Y-112545761D01*
X101870047Y-112402904D01*
X101774809Y-112355285D01*
X101679571Y-112355285D01*
X101727190Y-112593380D02*
X101631952Y-112545761D01*
X101536714Y-112450523D01*
X101489095Y-112260047D01*
X101489095Y-111926714D01*
X101536714Y-111736238D01*
X101631952Y-111641000D01*
X101727190Y-111593380D01*
X101917666Y-111593380D01*
X102012904Y-111641000D01*
X102108142Y-111736238D01*
X102155761Y-111926714D01*
X102155761Y-112260047D01*
X102108142Y-112450523D01*
X102012904Y-112545761D01*
X101917666Y-112593380D01*
X101727190Y-112593380D01*
X103108142Y-112593380D02*
X102536714Y-112593380D01*
X102822428Y-112593380D02*
X102822428Y-111593380D01*
X102727190Y-111736238D01*
X102631952Y-111831476D01*
X102536714Y-111879095D01*
X103727190Y-111593380D02*
X103822428Y-111593380D01*
X103917666Y-111641000D01*
X103965285Y-111688619D01*
X104012904Y-111783857D01*
X104060523Y-111974333D01*
X104060523Y-112212428D01*
X104012904Y-112402904D01*
X103965285Y-112498142D01*
X103917666Y-112545761D01*
X103822428Y-112593380D01*
X103727190Y-112593380D01*
X103631952Y-112545761D01*
X103584333Y-112498142D01*
X103536714Y-112402904D01*
X103489095Y-112212428D01*
X103489095Y-111974333D01*
X103536714Y-111783857D01*
X103584333Y-111688619D01*
X103631952Y-111641000D01*
X103727190Y-111593380D01*
X105012904Y-112593380D02*
X104441476Y-112593380D01*
X104727190Y-112593380D02*
X104727190Y-111593380D01*
X104631952Y-111736238D01*
X104536714Y-111831476D01*
X104441476Y-111879095D01*
%TD*%
M02*
