%TF.GenerationSoftware,KiCad,Pcbnew,(5.1.9)-1*%
%TF.CreationDate,2021-12-28T23:28:00-05:00*%
%TF.ProjectId,vr15,76723135-2e6b-4696-9361-645f70636258,rev?*%
%TF.SameCoordinates,Original*%
%TF.FileFunction,Copper,L2,Bot*%
%TF.FilePolarity,Positive*%
%FSLAX46Y46*%
G04 Gerber Fmt 4.6, Leading zero omitted, Abs format (unit mm)*
G04 Created by KiCad (PCBNEW (5.1.9)-1) date 2021-12-28 23:28:00*
%MOMM*%
%LPD*%
G01*
G04 APERTURE LIST*
%TA.AperFunction,ComponentPad*%
%ADD10O,1.000000X1.000000*%
%TD*%
%TA.AperFunction,ComponentPad*%
%ADD11R,1.000000X1.000000*%
%TD*%
%TA.AperFunction,SMDPad,CuDef*%
%ADD12R,0.800000X1.000000*%
%TD*%
%TA.AperFunction,SMDPad,CuDef*%
%ADD13R,1.500000X0.700000*%
%TD*%
%TA.AperFunction,ComponentPad*%
%ADD14C,1.000000*%
%TD*%
%TA.AperFunction,ComponentPad*%
%ADD15O,1.700000X1.700000*%
%TD*%
%TA.AperFunction,SMDPad,CuDef*%
%ADD16R,2.000000X0.900000*%
%TD*%
%TA.AperFunction,SMDPad,CuDef*%
%ADD17R,0.900000X2.000000*%
%TD*%
%TA.AperFunction,ComponentPad*%
%ADD18R,1.700000X1.700000*%
%TD*%
%TA.AperFunction,ViaPad*%
%ADD19C,1.600000*%
%TD*%
%TA.AperFunction,ViaPad*%
%ADD20C,0.800000*%
%TD*%
%TA.AperFunction,Conductor*%
%ADD21C,0.635000*%
%TD*%
%TA.AperFunction,Conductor*%
%ADD22C,0.457200*%
%TD*%
%TA.AperFunction,Conductor*%
%ADD23C,0.203200*%
%TD*%
%TA.AperFunction,Conductor*%
%ADD24C,0.304800*%
%TD*%
G04 APERTURE END LIST*
D10*
%TO.P,J107,4*%
%TO.N,+3V3*%
X89027000Y-88138000D03*
%TO.P,J107,3*%
%TO.N,TXD0*%
X89027000Y-89408000D03*
%TO.P,J107,2*%
%TO.N,RXD0*%
X89027000Y-90678000D03*
D11*
%TO.P,J107,1*%
%TO.N,GND*%
X89027000Y-91948000D03*
%TD*%
D12*
%TO.P,SW101,*%
%TO.N,*%
X90213400Y-109618800D03*
X90213400Y-102318800D03*
X88003400Y-102318800D03*
X88003400Y-109618800D03*
D13*
%TO.P,SW101,3*%
%TO.N,N/C*%
X90863400Y-103718800D03*
%TO.P,SW101,2*%
%TO.N,IO0*%
X90863400Y-105218800D03*
%TO.P,SW101,1*%
%TO.N,GND*%
X90863400Y-108218800D03*
%TD*%
D11*
%TO.P,TP2,1*%
%TO.N,GND*%
X104000000Y-116840000D03*
%TD*%
D14*
%TO.P,TP1,1*%
%TO.N,+3V3*%
X101600000Y-116840000D03*
%TD*%
%TO.P,D2,2*%
%TO.N,+3V3*%
%TA.AperFunction,SMDPad,CuDef*%
G36*
G01*
X114331000Y-91202500D02*
X114331000Y-91677500D01*
G75*
G02*
X114093500Y-91915000I-237500J0D01*
G01*
X113518500Y-91915000D01*
G75*
G02*
X113281000Y-91677500I0J237500D01*
G01*
X113281000Y-91202500D01*
G75*
G02*
X113518500Y-90965000I237500J0D01*
G01*
X114093500Y-90965000D01*
G75*
G02*
X114331000Y-91202500I0J-237500D01*
G01*
G37*
%TD.AperFunction*%
%TO.P,D2,1*%
%TO.N,Net-(D2-Pad1)*%
%TA.AperFunction,SMDPad,CuDef*%
G36*
G01*
X116081000Y-91202500D02*
X116081000Y-91677500D01*
G75*
G02*
X115843500Y-91915000I-237500J0D01*
G01*
X115268500Y-91915000D01*
G75*
G02*
X115031000Y-91677500I0J237500D01*
G01*
X115031000Y-91202500D01*
G75*
G02*
X115268500Y-90965000I237500J0D01*
G01*
X115843500Y-90965000D01*
G75*
G02*
X116081000Y-91202500I0J-237500D01*
G01*
G37*
%TD.AperFunction*%
%TD*%
D15*
%TO.P,J101,2*%
%TO.N,Net-(D101-Pad2)*%
X110045500Y-114744500D03*
%TO.P,J101,1*%
%TO.N,+12V*%
X110045500Y-117284500D03*
%TD*%
D10*
%TO.P,J102,2*%
%TO.N,Net-(D102-Pad2)*%
X106616500Y-115125500D03*
%TO.P,J102,1*%
%TO.N,+12V*%
X106616500Y-113855500D03*
%TD*%
%TO.P,J106,2*%
%TO.N,sw_bolt*%
X99250500Y-114236500D03*
%TO.P,J106,1*%
%TO.N,+3V3*%
X99250500Y-112966500D03*
%TD*%
%TO.P,J105,2*%
%TO.N,sw_mag*%
X96139000Y-114236500D03*
%TO.P,J105,1*%
%TO.N,+3V3*%
X96139000Y-112966500D03*
%TD*%
%TO.P,J104,2*%
%TO.N,sw_selector*%
X93027500Y-114236500D03*
%TO.P,J104,1*%
%TO.N,+3V3*%
X93027500Y-112966500D03*
%TD*%
%TO.P,J103,2*%
%TO.N,sw_fire*%
X89916000Y-114236500D03*
%TO.P,J103,1*%
%TO.N,+3V3*%
X89916000Y-112966500D03*
%TD*%
D16*
%TO.P,U2,38*%
%TO.N,GND*%
X93608000Y-85598000D03*
%TO.P,U2,37*%
%TO.N,N/C*%
X93608000Y-86868000D03*
%TO.P,U2,36*%
%TO.N,SCL*%
X93608000Y-88138000D03*
%TO.P,U2,35*%
%TO.N,TXD0*%
X93608000Y-89408000D03*
%TO.P,U2,34*%
%TO.N,RXD0*%
X93608000Y-90678000D03*
%TO.P,U2,33*%
%TO.N,SDA*%
X93608000Y-91948000D03*
%TO.P,U2,32*%
%TO.N,N/C*%
X93608000Y-93218000D03*
%TO.P,U2,31*%
X93608000Y-94488000D03*
%TO.P,U2,30*%
X93608000Y-95758000D03*
%TO.P,U2,29*%
X93608000Y-97028000D03*
%TO.P,U2,28*%
X93608000Y-98298000D03*
%TO.P,U2,27*%
X93608000Y-99568000D03*
%TO.P,U2,26*%
X93608000Y-100838000D03*
%TO.P,U2,25*%
%TO.N,IO0*%
X93608000Y-102108000D03*
D17*
%TO.P,U2,24*%
%TO.N,bolt_catch*%
X96393000Y-103108000D03*
%TO.P,U2,23*%
%TO.N,sw_fire*%
X97663000Y-103108000D03*
%TO.P,U2,22*%
%TO.N,N/C*%
X98933000Y-103108000D03*
%TO.P,U2,21*%
X100203000Y-103108000D03*
%TO.P,U2,20*%
X101473000Y-103108000D03*
%TO.P,U2,19*%
X102743000Y-103108000D03*
%TO.P,U2,18*%
X104013000Y-103108000D03*
%TO.P,U2,17*%
X105283000Y-103108000D03*
%TO.P,U2,16*%
%TO.N,valve*%
X106553000Y-103108000D03*
%TO.P,U2,15*%
%TO.N,GND*%
X107823000Y-103108000D03*
D16*
%TO.P,U2,14*%
%TO.N,sw_selector*%
X110608000Y-102108000D03*
%TO.P,U2,13*%
%TO.N,sw_mag*%
X110608000Y-100838000D03*
%TO.P,U2,12*%
%TO.N,sw_bolt*%
X110608000Y-99568000D03*
%TO.P,U2,11*%
%TO.N,N/C*%
X110608000Y-98298000D03*
%TO.P,U2,10*%
X110608000Y-97028000D03*
%TO.P,U2,9*%
X110608000Y-95758000D03*
%TO.P,U2,8*%
X110608000Y-94488000D03*
%TO.P,U2,7*%
X110608000Y-93218000D03*
%TO.P,U2,6*%
X110608000Y-91948000D03*
%TO.P,U2,5*%
X110608000Y-90678000D03*
%TO.P,U2,4*%
X110608000Y-89408000D03*
%TO.P,U2,3*%
%TO.N,Net-(R102-Pad2)*%
X110608000Y-88138000D03*
%TO.P,U2,2*%
%TO.N,+3V3*%
X110608000Y-86868000D03*
%TO.P,U2,1*%
%TO.N,GND*%
X110608000Y-85598000D03*
%TD*%
%TO.P,R101,2*%
%TO.N,GND*%
%TA.AperFunction,SMDPad,CuDef*%
G36*
G01*
X116061500Y-87609500D02*
X115586500Y-87609500D01*
G75*
G02*
X115349000Y-87372000I0J237500D01*
G01*
X115349000Y-86872000D01*
G75*
G02*
X115586500Y-86634500I237500J0D01*
G01*
X116061500Y-86634500D01*
G75*
G02*
X116299000Y-86872000I0J-237500D01*
G01*
X116299000Y-87372000D01*
G75*
G02*
X116061500Y-87609500I-237500J0D01*
G01*
G37*
%TD.AperFunction*%
%TO.P,R101,1*%
%TO.N,Net-(D2-Pad1)*%
%TA.AperFunction,SMDPad,CuDef*%
G36*
G01*
X116061500Y-89434500D02*
X115586500Y-89434500D01*
G75*
G02*
X115349000Y-89197000I0J237500D01*
G01*
X115349000Y-88697000D01*
G75*
G02*
X115586500Y-88459500I237500J0D01*
G01*
X116061500Y-88459500D01*
G75*
G02*
X116299000Y-88697000I0J-237500D01*
G01*
X116299000Y-89197000D01*
G75*
G02*
X116061500Y-89434500I-237500J0D01*
G01*
G37*
%TD.AperFunction*%
%TD*%
D15*
%TO.P,J1,2*%
%TO.N,+12V*%
X113728500Y-114744500D03*
D18*
%TO.P,J1,1*%
%TO.N,GND*%
X113728500Y-117284500D03*
%TD*%
%TO.P,R110,2*%
%TO.N,GND*%
%TA.AperFunction,SMDPad,CuDef*%
G36*
G01*
X98314500Y-117773000D02*
X98789500Y-117773000D01*
G75*
G02*
X99027000Y-118010500I0J-237500D01*
G01*
X99027000Y-118510500D01*
G75*
G02*
X98789500Y-118748000I-237500J0D01*
G01*
X98314500Y-118748000D01*
G75*
G02*
X98077000Y-118510500I0J237500D01*
G01*
X98077000Y-118010500D01*
G75*
G02*
X98314500Y-117773000I237500J0D01*
G01*
G37*
%TD.AperFunction*%
%TO.P,R110,1*%
%TO.N,sw_bolt*%
%TA.AperFunction,SMDPad,CuDef*%
G36*
G01*
X98314500Y-115948000D02*
X98789500Y-115948000D01*
G75*
G02*
X99027000Y-116185500I0J-237500D01*
G01*
X99027000Y-116685500D01*
G75*
G02*
X98789500Y-116923000I-237500J0D01*
G01*
X98314500Y-116923000D01*
G75*
G02*
X98077000Y-116685500I0J237500D01*
G01*
X98077000Y-116185500D01*
G75*
G02*
X98314500Y-115948000I237500J0D01*
G01*
G37*
%TD.AperFunction*%
%TD*%
D10*
%TO.P,J108,4*%
%TO.N,+3V3*%
X89027000Y-100203000D03*
%TO.P,J108,3*%
%TO.N,SCL*%
X89027000Y-98933000D03*
%TO.P,J108,2*%
%TO.N,SDA*%
X89027000Y-97663000D03*
D11*
%TO.P,J108,1*%
%TO.N,GND*%
X89027000Y-96393000D03*
%TD*%
%TO.P,R107,2*%
%TO.N,GND*%
%TA.AperFunction,SMDPad,CuDef*%
G36*
G01*
X96282500Y-117773000D02*
X96757500Y-117773000D01*
G75*
G02*
X96995000Y-118010500I0J-237500D01*
G01*
X96995000Y-118510500D01*
G75*
G02*
X96757500Y-118748000I-237500J0D01*
G01*
X96282500Y-118748000D01*
G75*
G02*
X96045000Y-118510500I0J237500D01*
G01*
X96045000Y-118010500D01*
G75*
G02*
X96282500Y-117773000I237500J0D01*
G01*
G37*
%TD.AperFunction*%
%TO.P,R107,1*%
%TO.N,sw_mag*%
%TA.AperFunction,SMDPad,CuDef*%
G36*
G01*
X96282500Y-115948000D02*
X96757500Y-115948000D01*
G75*
G02*
X96995000Y-116185500I0J-237500D01*
G01*
X96995000Y-116685500D01*
G75*
G02*
X96757500Y-116923000I-237500J0D01*
G01*
X96282500Y-116923000D01*
G75*
G02*
X96045000Y-116685500I0J237500D01*
G01*
X96045000Y-116185500D01*
G75*
G02*
X96282500Y-115948000I237500J0D01*
G01*
G37*
%TD.AperFunction*%
%TD*%
%TO.P,R106,2*%
%TO.N,GND*%
%TA.AperFunction,SMDPad,CuDef*%
G36*
G01*
X94250500Y-117773000D02*
X94725500Y-117773000D01*
G75*
G02*
X94963000Y-118010500I0J-237500D01*
G01*
X94963000Y-118510500D01*
G75*
G02*
X94725500Y-118748000I-237500J0D01*
G01*
X94250500Y-118748000D01*
G75*
G02*
X94013000Y-118510500I0J237500D01*
G01*
X94013000Y-118010500D01*
G75*
G02*
X94250500Y-117773000I237500J0D01*
G01*
G37*
%TD.AperFunction*%
%TO.P,R106,1*%
%TO.N,sw_selector*%
%TA.AperFunction,SMDPad,CuDef*%
G36*
G01*
X94250500Y-115948000D02*
X94725500Y-115948000D01*
G75*
G02*
X94963000Y-116185500I0J-237500D01*
G01*
X94963000Y-116685500D01*
G75*
G02*
X94725500Y-116923000I-237500J0D01*
G01*
X94250500Y-116923000D01*
G75*
G02*
X94013000Y-116685500I0J237500D01*
G01*
X94013000Y-116185500D01*
G75*
G02*
X94250500Y-115948000I237500J0D01*
G01*
G37*
%TD.AperFunction*%
%TD*%
%TO.P,R103,2*%
%TO.N,GND*%
%TA.AperFunction,SMDPad,CuDef*%
G36*
G01*
X92218500Y-117773000D02*
X92693500Y-117773000D01*
G75*
G02*
X92931000Y-118010500I0J-237500D01*
G01*
X92931000Y-118510500D01*
G75*
G02*
X92693500Y-118748000I-237500J0D01*
G01*
X92218500Y-118748000D01*
G75*
G02*
X91981000Y-118510500I0J237500D01*
G01*
X91981000Y-118010500D01*
G75*
G02*
X92218500Y-117773000I237500J0D01*
G01*
G37*
%TD.AperFunction*%
%TO.P,R103,1*%
%TO.N,sw_fire*%
%TA.AperFunction,SMDPad,CuDef*%
G36*
G01*
X92218500Y-115948000D02*
X92693500Y-115948000D01*
G75*
G02*
X92931000Y-116185500I0J-237500D01*
G01*
X92931000Y-116685500D01*
G75*
G02*
X92693500Y-116923000I-237500J0D01*
G01*
X92218500Y-116923000D01*
G75*
G02*
X91981000Y-116685500I0J237500D01*
G01*
X91981000Y-116185500D01*
G75*
G02*
X92218500Y-115948000I237500J0D01*
G01*
G37*
%TD.AperFunction*%
%TD*%
%TO.P,R102,2*%
%TO.N,Net-(R102-Pad2)*%
%TA.AperFunction,SMDPad,CuDef*%
G36*
G01*
X113554500Y-88436000D02*
X114029500Y-88436000D01*
G75*
G02*
X114267000Y-88673500I0J-237500D01*
G01*
X114267000Y-89173500D01*
G75*
G02*
X114029500Y-89411000I-237500J0D01*
G01*
X113554500Y-89411000D01*
G75*
G02*
X113317000Y-89173500I0J237500D01*
G01*
X113317000Y-88673500D01*
G75*
G02*
X113554500Y-88436000I237500J0D01*
G01*
G37*
%TD.AperFunction*%
%TO.P,R102,1*%
%TO.N,+3V3*%
%TA.AperFunction,SMDPad,CuDef*%
G36*
G01*
X113554500Y-86611000D02*
X114029500Y-86611000D01*
G75*
G02*
X114267000Y-86848500I0J-237500D01*
G01*
X114267000Y-87348500D01*
G75*
G02*
X114029500Y-87586000I-237500J0D01*
G01*
X113554500Y-87586000D01*
G75*
G02*
X113317000Y-87348500I0J237500D01*
G01*
X113317000Y-86848500D01*
G75*
G02*
X113554500Y-86611000I237500J0D01*
G01*
G37*
%TD.AperFunction*%
%TD*%
D19*
%TO.N,GND*%
X109093000Y-104838500D03*
X96647000Y-86232996D03*
X106426000Y-86296500D03*
D20*
X95224600Y-104648000D03*
%TO.N,+3V3*%
X99822000Y-88392000D03*
D19*
%TO.N,+12V*%
X113194008Y-98906500D03*
D20*
%TO.N,Net-(R5-Pad2)*%
X98869500Y-98933000D03*
X106489500Y-95503994D03*
%TO.N,bolt_catch*%
X96393000Y-105664000D03*
%TO.N,valve*%
X107696000Y-106299002D03*
%TD*%
D21*
%TO.N,GND*%
X114300000Y-85598000D02*
X115824000Y-87122000D01*
X110608000Y-85598000D02*
X114300000Y-85598000D01*
X107823000Y-103568500D02*
X109093000Y-104838500D01*
X107823000Y-103108000D02*
X107823000Y-103568500D01*
X93608000Y-85598000D02*
X96012004Y-85598000D01*
X96012004Y-85598000D02*
X96647000Y-86232996D01*
X110608000Y-85598000D02*
X107124500Y-85598000D01*
X107124500Y-85598000D02*
X106426000Y-86296500D01*
X89027000Y-91948000D02*
X89027000Y-96393000D01*
D22*
X95224600Y-104673400D02*
X95224600Y-104648000D01*
X91679200Y-108218800D02*
X95224600Y-104673400D01*
X90863400Y-108218800D02*
X91679200Y-108218800D01*
D21*
X113728500Y-117284500D02*
X112204500Y-118808500D01*
X100116000Y-118808500D02*
X99568000Y-118260500D01*
X112204500Y-118808500D02*
X107251500Y-118808500D01*
X107251500Y-118808500D02*
X106870500Y-118808500D01*
X99568000Y-118260500D02*
X97536000Y-118260500D01*
X97536000Y-118260500D02*
X94488000Y-118260500D01*
X94488000Y-118260500D02*
X92456000Y-118260500D01*
X104000000Y-118732000D02*
X104076500Y-118808500D01*
X104000000Y-116840000D02*
X104000000Y-118732000D01*
X104076500Y-118808500D02*
X100116000Y-118808500D01*
X107251500Y-118808500D02*
X104076500Y-118808500D01*
%TO.N,+3V3*%
X113561500Y-86868000D02*
X113792000Y-87098500D01*
X110608000Y-86868000D02*
X113561500Y-86868000D01*
D23*
X113792000Y-87098500D02*
X113895500Y-87098500D01*
D24*
X113895500Y-87098500D02*
X114808000Y-88011000D01*
X114808000Y-88011000D02*
X114808000Y-89408000D01*
X113806000Y-90410000D02*
X113806000Y-91440000D01*
X114808000Y-89408000D02*
X113806000Y-90410000D01*
D21*
X99822000Y-88392000D02*
X108061002Y-88392000D01*
X108061002Y-88392000D02*
X109585002Y-86868000D01*
X109585002Y-86868000D02*
X110608000Y-86868000D01*
D24*
%TO.N,IO0*%
X92885118Y-102108000D02*
X93608000Y-102108000D01*
X93608000Y-103529000D02*
X93608000Y-102108000D01*
X91918200Y-105218800D02*
X93608000Y-103529000D01*
X90863400Y-105218800D02*
X91918200Y-105218800D01*
%TO.N,RXD0*%
X93608000Y-90678000D02*
X89027000Y-90678000D01*
%TO.N,TXD0*%
X93608000Y-89408000D02*
X89027000Y-89408000D01*
D21*
%TO.N,+12V*%
X116141500Y-101853992D02*
X113194008Y-98906500D01*
X116141500Y-112331500D02*
X116141500Y-101853992D01*
X113728500Y-114744500D02*
X116141500Y-112331500D01*
D24*
%TO.N,SDA*%
X90932000Y-93027500D02*
X90932000Y-96465106D01*
X92011500Y-91948000D02*
X90932000Y-93027500D01*
X89734106Y-97663000D02*
X89027000Y-97663000D01*
X90932000Y-96465106D02*
X89734106Y-97663000D01*
X93608000Y-91948000D02*
X92011500Y-91948000D01*
%TO.N,SCL*%
X87757000Y-98425000D02*
X88265000Y-98933000D01*
X87757000Y-87757000D02*
X87757000Y-98425000D01*
X91007800Y-86741000D02*
X88773000Y-86741000D01*
X88265000Y-98933000D02*
X89027000Y-98933000D01*
X88773000Y-86741000D02*
X87757000Y-87757000D01*
X92404800Y-88138000D02*
X91007800Y-86741000D01*
X93608000Y-88138000D02*
X92404800Y-88138000D01*
%TO.N,Net-(R5-Pad2)*%
X98869500Y-98933000D02*
X103060494Y-98933000D01*
X103060494Y-98933000D02*
X106489500Y-95503994D01*
%TO.N,Net-(D2-Pad1)*%
X115556000Y-91440000D02*
X115556000Y-90565000D01*
X115824000Y-90297000D02*
X115824000Y-88947000D01*
X115556000Y-90565000D02*
X115824000Y-90297000D01*
%TO.N,bolt_catch*%
X96393000Y-103108000D02*
X96393000Y-105664000D01*
%TO.N,valve*%
X106553000Y-103108000D02*
X106553000Y-105156002D01*
X106553000Y-105156002D02*
X107696000Y-106299002D01*
%TO.N,sw_fire*%
X97663000Y-106426000D02*
X97663000Y-103108000D01*
X89916000Y-114173000D02*
X97663000Y-106426000D01*
X89916000Y-114236500D02*
X89916000Y-114173000D01*
X90257000Y-114236500D02*
X92456000Y-116435500D01*
X89916000Y-114236500D02*
X90257000Y-114236500D01*
%TO.N,sw_selector*%
X93027500Y-114975000D02*
X94488000Y-116435500D01*
X93027500Y-114236500D02*
X93027500Y-114975000D01*
X110608000Y-106117500D02*
X110608000Y-102108000D01*
X98107500Y-107886500D02*
X108839000Y-107886500D01*
X94551500Y-111442500D02*
X98107500Y-107886500D01*
X94551500Y-113538000D02*
X94551500Y-111442500D01*
X108839000Y-107886500D02*
X110608000Y-106117500D01*
X93853000Y-114236500D02*
X94551500Y-113538000D01*
X93027500Y-114236500D02*
X93853000Y-114236500D01*
%TO.N,sw_mag*%
X96139000Y-116054500D02*
X96520000Y-116435500D01*
X96139000Y-114236500D02*
X96139000Y-116054500D01*
X111422322Y-100838000D02*
X110608000Y-100838000D01*
X112712500Y-102128178D02*
X111422322Y-100838000D01*
X112712500Y-105156000D02*
X112712500Y-102128178D01*
X109156500Y-108712000D02*
X112712500Y-105156000D01*
X100965000Y-108712000D02*
X109156500Y-108712000D01*
X97726500Y-111950500D02*
X100965000Y-108712000D01*
X97726500Y-113347500D02*
X97726500Y-111950500D01*
X96837500Y-114236500D02*
X97726500Y-113347500D01*
X96139000Y-114236500D02*
X96837500Y-114236500D01*
%TO.N,sw_bolt*%
X99250500Y-115737000D02*
X98552000Y-116435500D01*
X99250500Y-114236500D02*
X99250500Y-115737000D01*
X113665000Y-101810678D02*
X111422322Y-99568000D01*
X113665000Y-105537000D02*
X113665000Y-101810678D01*
X109664500Y-109537500D02*
X113665000Y-105537000D01*
X104330500Y-109537500D02*
X109664500Y-109537500D01*
X99631500Y-114236500D02*
X104330500Y-109537500D01*
X111422322Y-99568000D02*
X110608000Y-99568000D01*
X99250500Y-114236500D02*
X99631500Y-114236500D01*
%TO.N,Net-(R102-Pad2)*%
X113006500Y-88138000D02*
X113792000Y-88923500D01*
X110608000Y-88138000D02*
X113006500Y-88138000D01*
%TD*%
M02*
