M48
; DRILL file {KiCad (5.1.9)-1} date 12/28/21 23:27:57
; FORMAT={-:-/ absolute / inch / decimal}
; #@! TF.CreationDate,2021-12-28T23:27:57-05:00
; #@! TF.GenerationSoftware,Kicad,Pcbnew,(5.1.9)-1
; #@! TF.FileFunction,Plated,1,2,PTH
FMAT,2
INCH
T1C0.0157
T2C0.0197
T3C0.0256
T4C0.0315
T5C0.0394
%
G90
G05
T1
X3.749Y-4.12
X3.795Y-4.16
X3.8925Y-3.895
X3.93Y-3.48
X4.1925Y-3.76
X4.24Y-4.185
T2
X4.0Y-4.6
X4.0945Y-4.6
T3
X3.505Y-3.47
X3.505Y-3.52
X3.505Y-3.57
X3.505Y-3.62
X3.505Y-3.795
X3.505Y-3.845
X3.505Y-3.895
X3.505Y-3.945
X3.54Y-4.4475
X3.54Y-4.4975
X3.6625Y-4.4475
X3.6625Y-4.4975
X3.785Y-4.4475
X3.785Y-4.4975
X3.9075Y-4.4475
X3.9075Y-4.4975
X4.1975Y-4.4825
X4.1975Y-4.5325
T4
X3.805Y-3.395
X4.19Y-3.3975
X4.295Y-4.1275
X4.4565Y-3.894
T5
X4.3325Y-4.5175
X4.3325Y-4.6175
X4.4775Y-4.5175
X4.4775Y-4.6175
T0
M30
