%TF.GenerationSoftware,KiCad,Pcbnew,(5.1.9)-1*%
%TF.CreationDate,2021-12-28T23:28:00-05:00*%
%TF.ProjectId,vr15,76723135-2e6b-4696-9361-645f70636258,rev?*%
%TF.SameCoordinates,Original*%
%TF.FileFunction,Soldermask,Bot*%
%TF.FilePolarity,Negative*%
%FSLAX46Y46*%
G04 Gerber Fmt 4.6, Leading zero omitted, Abs format (unit mm)*
G04 Created by KiCad (PCBNEW (5.1.9)-1) date 2021-12-28 23:28:00*
%MOMM*%
%LPD*%
G01*
G04 APERTURE LIST*
%ADD10C,2.200000*%
%ADD11O,1.000000X1.000000*%
%ADD12R,1.000000X1.000000*%
%ADD13R,0.800000X1.000000*%
%ADD14R,1.500000X0.700000*%
%ADD15C,0.900000*%
%ADD16C,1.000000*%
%ADD17O,1.700000X1.700000*%
%ADD18R,2.000000X0.900000*%
%ADD19R,0.900000X2.000000*%
%ADD20R,1.700000X1.700000*%
G04 APERTURE END LIST*
D10*
%TO.C,H1*%
X89281000Y-117475000D03*
%TD*%
D11*
%TO.C,J107*%
X89027000Y-88138000D03*
X89027000Y-89408000D03*
X89027000Y-90678000D03*
D12*
X89027000Y-91948000D03*
%TD*%
D13*
%TO.C,SW101*%
X90213400Y-109618800D03*
X90213400Y-102318800D03*
X88003400Y-102318800D03*
X88003400Y-109618800D03*
D14*
X90863400Y-103718800D03*
X90863400Y-105218800D03*
X90863400Y-108218800D03*
D15*
X89103400Y-104468800D03*
X89103400Y-107468800D03*
%TD*%
D12*
%TO.C,TP2*%
X104000000Y-116840000D03*
%TD*%
D16*
%TO.C,TP1*%
X101600000Y-116840000D03*
%TD*%
%TO.C,D2*%
G36*
G01*
X114331000Y-91202500D02*
X114331000Y-91677500D01*
G75*
G02*
X114093500Y-91915000I-237500J0D01*
G01*
X113518500Y-91915000D01*
G75*
G02*
X113281000Y-91677500I0J237500D01*
G01*
X113281000Y-91202500D01*
G75*
G02*
X113518500Y-90965000I237500J0D01*
G01*
X114093500Y-90965000D01*
G75*
G02*
X114331000Y-91202500I0J-237500D01*
G01*
G37*
G36*
G01*
X116081000Y-91202500D02*
X116081000Y-91677500D01*
G75*
G02*
X115843500Y-91915000I-237500J0D01*
G01*
X115268500Y-91915000D01*
G75*
G02*
X115031000Y-91677500I0J237500D01*
G01*
X115031000Y-91202500D01*
G75*
G02*
X115268500Y-90965000I237500J0D01*
G01*
X115843500Y-90965000D01*
G75*
G02*
X116081000Y-91202500I0J-237500D01*
G01*
G37*
%TD*%
D17*
%TO.C,J101*%
X110045500Y-114744500D03*
X110045500Y-117284500D03*
%TD*%
D11*
%TO.C,J102*%
X106616500Y-115125500D03*
X106616500Y-113855500D03*
%TD*%
%TO.C,J106*%
X99250500Y-114236500D03*
X99250500Y-112966500D03*
%TD*%
%TO.C,J105*%
X96139000Y-114236500D03*
X96139000Y-112966500D03*
%TD*%
%TO.C,J104*%
X93027500Y-114236500D03*
X93027500Y-112966500D03*
%TD*%
%TO.C,J103*%
X89916000Y-114236500D03*
X89916000Y-112966500D03*
%TD*%
D18*
%TO.C,U2*%
X93608000Y-85598000D03*
X93608000Y-86868000D03*
X93608000Y-88138000D03*
X93608000Y-89408000D03*
X93608000Y-90678000D03*
X93608000Y-91948000D03*
X93608000Y-93218000D03*
X93608000Y-94488000D03*
X93608000Y-95758000D03*
X93608000Y-97028000D03*
X93608000Y-98298000D03*
X93608000Y-99568000D03*
X93608000Y-100838000D03*
X93608000Y-102108000D03*
D19*
X96393000Y-103108000D03*
X97663000Y-103108000D03*
X98933000Y-103108000D03*
X100203000Y-103108000D03*
X101473000Y-103108000D03*
X102743000Y-103108000D03*
X104013000Y-103108000D03*
X105283000Y-103108000D03*
X106553000Y-103108000D03*
X107823000Y-103108000D03*
D18*
X110608000Y-102108000D03*
X110608000Y-100838000D03*
X110608000Y-99568000D03*
X110608000Y-98298000D03*
X110608000Y-97028000D03*
X110608000Y-95758000D03*
X110608000Y-94488000D03*
X110608000Y-93218000D03*
X110608000Y-91948000D03*
X110608000Y-90678000D03*
X110608000Y-89408000D03*
X110608000Y-88138000D03*
X110608000Y-86868000D03*
X110608000Y-85598000D03*
%TD*%
%TO.C,R101*%
G36*
G01*
X116061500Y-87609500D02*
X115586500Y-87609500D01*
G75*
G02*
X115349000Y-87372000I0J237500D01*
G01*
X115349000Y-86872000D01*
G75*
G02*
X115586500Y-86634500I237500J0D01*
G01*
X116061500Y-86634500D01*
G75*
G02*
X116299000Y-86872000I0J-237500D01*
G01*
X116299000Y-87372000D01*
G75*
G02*
X116061500Y-87609500I-237500J0D01*
G01*
G37*
G36*
G01*
X116061500Y-89434500D02*
X115586500Y-89434500D01*
G75*
G02*
X115349000Y-89197000I0J237500D01*
G01*
X115349000Y-88697000D01*
G75*
G02*
X115586500Y-88459500I237500J0D01*
G01*
X116061500Y-88459500D01*
G75*
G02*
X116299000Y-88697000I0J-237500D01*
G01*
X116299000Y-89197000D01*
G75*
G02*
X116061500Y-89434500I-237500J0D01*
G01*
G37*
%TD*%
D17*
%TO.C,J1*%
X113728500Y-114744500D03*
D20*
X113728500Y-117284500D03*
%TD*%
%TO.C,R110*%
G36*
G01*
X98314500Y-117773000D02*
X98789500Y-117773000D01*
G75*
G02*
X99027000Y-118010500I0J-237500D01*
G01*
X99027000Y-118510500D01*
G75*
G02*
X98789500Y-118748000I-237500J0D01*
G01*
X98314500Y-118748000D01*
G75*
G02*
X98077000Y-118510500I0J237500D01*
G01*
X98077000Y-118010500D01*
G75*
G02*
X98314500Y-117773000I237500J0D01*
G01*
G37*
G36*
G01*
X98314500Y-115948000D02*
X98789500Y-115948000D01*
G75*
G02*
X99027000Y-116185500I0J-237500D01*
G01*
X99027000Y-116685500D01*
G75*
G02*
X98789500Y-116923000I-237500J0D01*
G01*
X98314500Y-116923000D01*
G75*
G02*
X98077000Y-116685500I0J237500D01*
G01*
X98077000Y-116185500D01*
G75*
G02*
X98314500Y-115948000I237500J0D01*
G01*
G37*
%TD*%
D11*
%TO.C,J108*%
X89027000Y-100203000D03*
X89027000Y-98933000D03*
X89027000Y-97663000D03*
D12*
X89027000Y-96393000D03*
%TD*%
%TO.C,R107*%
G36*
G01*
X96282500Y-117773000D02*
X96757500Y-117773000D01*
G75*
G02*
X96995000Y-118010500I0J-237500D01*
G01*
X96995000Y-118510500D01*
G75*
G02*
X96757500Y-118748000I-237500J0D01*
G01*
X96282500Y-118748000D01*
G75*
G02*
X96045000Y-118510500I0J237500D01*
G01*
X96045000Y-118010500D01*
G75*
G02*
X96282500Y-117773000I237500J0D01*
G01*
G37*
G36*
G01*
X96282500Y-115948000D02*
X96757500Y-115948000D01*
G75*
G02*
X96995000Y-116185500I0J-237500D01*
G01*
X96995000Y-116685500D01*
G75*
G02*
X96757500Y-116923000I-237500J0D01*
G01*
X96282500Y-116923000D01*
G75*
G02*
X96045000Y-116685500I0J237500D01*
G01*
X96045000Y-116185500D01*
G75*
G02*
X96282500Y-115948000I237500J0D01*
G01*
G37*
%TD*%
%TO.C,R106*%
G36*
G01*
X94250500Y-117773000D02*
X94725500Y-117773000D01*
G75*
G02*
X94963000Y-118010500I0J-237500D01*
G01*
X94963000Y-118510500D01*
G75*
G02*
X94725500Y-118748000I-237500J0D01*
G01*
X94250500Y-118748000D01*
G75*
G02*
X94013000Y-118510500I0J237500D01*
G01*
X94013000Y-118010500D01*
G75*
G02*
X94250500Y-117773000I237500J0D01*
G01*
G37*
G36*
G01*
X94250500Y-115948000D02*
X94725500Y-115948000D01*
G75*
G02*
X94963000Y-116185500I0J-237500D01*
G01*
X94963000Y-116685500D01*
G75*
G02*
X94725500Y-116923000I-237500J0D01*
G01*
X94250500Y-116923000D01*
G75*
G02*
X94013000Y-116685500I0J237500D01*
G01*
X94013000Y-116185500D01*
G75*
G02*
X94250500Y-115948000I237500J0D01*
G01*
G37*
%TD*%
%TO.C,R103*%
G36*
G01*
X92218500Y-117773000D02*
X92693500Y-117773000D01*
G75*
G02*
X92931000Y-118010500I0J-237500D01*
G01*
X92931000Y-118510500D01*
G75*
G02*
X92693500Y-118748000I-237500J0D01*
G01*
X92218500Y-118748000D01*
G75*
G02*
X91981000Y-118510500I0J237500D01*
G01*
X91981000Y-118010500D01*
G75*
G02*
X92218500Y-117773000I237500J0D01*
G01*
G37*
G36*
G01*
X92218500Y-115948000D02*
X92693500Y-115948000D01*
G75*
G02*
X92931000Y-116185500I0J-237500D01*
G01*
X92931000Y-116685500D01*
G75*
G02*
X92693500Y-116923000I-237500J0D01*
G01*
X92218500Y-116923000D01*
G75*
G02*
X91981000Y-116685500I0J237500D01*
G01*
X91981000Y-116185500D01*
G75*
G02*
X92218500Y-115948000I237500J0D01*
G01*
G37*
%TD*%
%TO.C,R102*%
G36*
G01*
X113554500Y-88436000D02*
X114029500Y-88436000D01*
G75*
G02*
X114267000Y-88673500I0J-237500D01*
G01*
X114267000Y-89173500D01*
G75*
G02*
X114029500Y-89411000I-237500J0D01*
G01*
X113554500Y-89411000D01*
G75*
G02*
X113317000Y-89173500I0J237500D01*
G01*
X113317000Y-88673500D01*
G75*
G02*
X113554500Y-88436000I237500J0D01*
G01*
G37*
G36*
G01*
X113554500Y-86611000D02*
X114029500Y-86611000D01*
G75*
G02*
X114267000Y-86848500I0J-237500D01*
G01*
X114267000Y-87348500D01*
G75*
G02*
X114029500Y-87586000I-237500J0D01*
G01*
X113554500Y-87586000D01*
G75*
G02*
X113317000Y-87348500I0J237500D01*
G01*
X113317000Y-86848500D01*
G75*
G02*
X113554500Y-86611000I237500J0D01*
G01*
G37*
%TD*%
M02*
