%TF.GenerationSoftware,KiCad,Pcbnew,(5.1.9)-1*%
%TF.CreationDate,2021-12-28T23:28:00-05:00*%
%TF.ProjectId,vr15,76723135-2e6b-4696-9361-645f70636258,rev?*%
%TF.SameCoordinates,Original*%
%TF.FileFunction,Copper,L1,Top*%
%TF.FilePolarity,Positive*%
%FSLAX46Y46*%
G04 Gerber Fmt 4.6, Leading zero omitted, Abs format (unit mm)*
G04 Created by KiCad (PCBNEW (5.1.9)-1) date 2021-12-28 23:28:00*
%MOMM*%
%LPD*%
G01*
G04 APERTURE LIST*
%TA.AperFunction,ComponentPad*%
%ADD10O,1.000000X1.000000*%
%TD*%
%TA.AperFunction,ComponentPad*%
%ADD11R,1.000000X1.000000*%
%TD*%
%TA.AperFunction,ComponentPad*%
%ADD12C,1.000000*%
%TD*%
%TA.AperFunction,SMDPad,CuDef*%
%ADD13R,1.600000X1.500000*%
%TD*%
%TA.AperFunction,SMDPad,CuDef*%
%ADD14R,1.200000X1.200000*%
%TD*%
%TA.AperFunction,ComponentPad*%
%ADD15O,1.700000X1.700000*%
%TD*%
%TA.AperFunction,SMDPad,CuDef*%
%ADD16R,2.413000X3.429000*%
%TD*%
%TA.AperFunction,ComponentPad*%
%ADD17R,1.700000X1.700000*%
%TD*%
%TA.AperFunction,SMDPad,CuDef*%
%ADD18R,0.900000X0.800000*%
%TD*%
%TA.AperFunction,ViaPad*%
%ADD19C,1.600000*%
%TD*%
%TA.AperFunction,ViaPad*%
%ADD20C,0.800000*%
%TD*%
%TA.AperFunction,Conductor*%
%ADD21C,0.635000*%
%TD*%
%TA.AperFunction,Conductor*%
%ADD22C,0.457200*%
%TD*%
%TA.AperFunction,Conductor*%
%ADD23C,0.304800*%
%TD*%
%TA.AperFunction,Conductor*%
%ADD24C,0.254000*%
%TD*%
%TA.AperFunction,Conductor*%
%ADD25C,0.100000*%
%TD*%
G04 APERTURE END LIST*
D10*
%TO.P,J107,4*%
%TO.N,+3V3*%
X89027000Y-88138000D03*
%TO.P,J107,3*%
%TO.N,TXD0*%
X89027000Y-89408000D03*
%TO.P,J107,2*%
%TO.N,RXD0*%
X89027000Y-90678000D03*
D11*
%TO.P,J107,1*%
%TO.N,GND*%
X89027000Y-91948000D03*
%TD*%
%TO.P,TP2,1*%
%TO.N,GND*%
X104000000Y-116840000D03*
%TD*%
D12*
%TO.P,TP1,1*%
%TO.N,+3V3*%
X101600000Y-116840000D03*
%TD*%
D13*
%TO.P,RV1,2*%
%TO.N,+3V3*%
X96202500Y-96012000D03*
D14*
%TO.P,RV1,3*%
%TO.N,Net-(R2-Pad1)*%
X97202500Y-99262000D03*
%TO.P,RV1,1*%
%TO.N,+3V3*%
X95202500Y-99262000D03*
%TD*%
%TO.P,U1,8*%
%TO.N,Net-(C4-Pad1)*%
%TA.AperFunction,SMDPad,CuDef*%
G36*
G01*
X104878000Y-97813000D02*
X104878000Y-97513000D01*
G75*
G02*
X105028000Y-97363000I150000J0D01*
G01*
X106678000Y-97363000D01*
G75*
G02*
X106828000Y-97513000I0J-150000D01*
G01*
X106828000Y-97813000D01*
G75*
G02*
X106678000Y-97963000I-150000J0D01*
G01*
X105028000Y-97963000D01*
G75*
G02*
X104878000Y-97813000I0J150000D01*
G01*
G37*
%TD.AperFunction*%
%TO.P,U1,7*%
%TO.N,+12V*%
%TA.AperFunction,SMDPad,CuDef*%
G36*
G01*
X104878000Y-99083000D02*
X104878000Y-98783000D01*
G75*
G02*
X105028000Y-98633000I150000J0D01*
G01*
X106678000Y-98633000D01*
G75*
G02*
X106828000Y-98783000I0J-150000D01*
G01*
X106828000Y-99083000D01*
G75*
G02*
X106678000Y-99233000I-150000J0D01*
G01*
X105028000Y-99233000D01*
G75*
G02*
X104878000Y-99083000I0J150000D01*
G01*
G37*
%TD.AperFunction*%
%TO.P,U1,6*%
%TO.N,Net-(R4-Pad1)*%
%TA.AperFunction,SMDPad,CuDef*%
G36*
G01*
X104878000Y-100353000D02*
X104878000Y-100053000D01*
G75*
G02*
X105028000Y-99903000I150000J0D01*
G01*
X106678000Y-99903000D01*
G75*
G02*
X106828000Y-100053000I0J-150000D01*
G01*
X106828000Y-100353000D01*
G75*
G02*
X106678000Y-100503000I-150000J0D01*
G01*
X105028000Y-100503000D01*
G75*
G02*
X104878000Y-100353000I0J150000D01*
G01*
G37*
%TD.AperFunction*%
%TO.P,U1,5*%
%TO.N,GND*%
%TA.AperFunction,SMDPad,CuDef*%
G36*
G01*
X104878000Y-101623000D02*
X104878000Y-101323000D01*
G75*
G02*
X105028000Y-101173000I150000J0D01*
G01*
X106678000Y-101173000D01*
G75*
G02*
X106828000Y-101323000I0J-150000D01*
G01*
X106828000Y-101623000D01*
G75*
G02*
X106678000Y-101773000I-150000J0D01*
G01*
X105028000Y-101773000D01*
G75*
G02*
X104878000Y-101623000I0J150000D01*
G01*
G37*
%TD.AperFunction*%
%TO.P,U1,4*%
%TO.N,Net-(R2-Pad1)*%
%TA.AperFunction,SMDPad,CuDef*%
G36*
G01*
X99928000Y-101623000D02*
X99928000Y-101323000D01*
G75*
G02*
X100078000Y-101173000I150000J0D01*
G01*
X101728000Y-101173000D01*
G75*
G02*
X101878000Y-101323000I0J-150000D01*
G01*
X101878000Y-101623000D01*
G75*
G02*
X101728000Y-101773000I-150000J0D01*
G01*
X100078000Y-101773000D01*
G75*
G02*
X99928000Y-101623000I0J150000D01*
G01*
G37*
%TD.AperFunction*%
%TO.P,U1,3*%
%TO.N,Net-(C3-Pad1)*%
%TA.AperFunction,SMDPad,CuDef*%
G36*
G01*
X99928000Y-100353000D02*
X99928000Y-100053000D01*
G75*
G02*
X100078000Y-99903000I150000J0D01*
G01*
X101728000Y-99903000D01*
G75*
G02*
X101878000Y-100053000I0J-150000D01*
G01*
X101878000Y-100353000D01*
G75*
G02*
X101728000Y-100503000I-150000J0D01*
G01*
X100078000Y-100503000D01*
G75*
G02*
X99928000Y-100353000I0J150000D01*
G01*
G37*
%TD.AperFunction*%
%TO.P,U1,2*%
%TO.N,Net-(R5-Pad2)*%
%TA.AperFunction,SMDPad,CuDef*%
G36*
G01*
X99928000Y-99083000D02*
X99928000Y-98783000D01*
G75*
G02*
X100078000Y-98633000I150000J0D01*
G01*
X101728000Y-98633000D01*
G75*
G02*
X101878000Y-98783000I0J-150000D01*
G01*
X101878000Y-99083000D01*
G75*
G02*
X101728000Y-99233000I-150000J0D01*
G01*
X100078000Y-99233000D01*
G75*
G02*
X99928000Y-99083000I0J150000D01*
G01*
G37*
%TD.AperFunction*%
%TO.P,U1,1*%
%TO.N,Net-(C4-Pad2)*%
%TA.AperFunction,SMDPad,CuDef*%
G36*
G01*
X99928000Y-97813000D02*
X99928000Y-97513000D01*
G75*
G02*
X100078000Y-97363000I150000J0D01*
G01*
X101728000Y-97363000D01*
G75*
G02*
X101878000Y-97513000I0J-150000D01*
G01*
X101878000Y-97813000D01*
G75*
G02*
X101728000Y-97963000I-150000J0D01*
G01*
X100078000Y-97963000D01*
G75*
G02*
X99928000Y-97813000I0J150000D01*
G01*
G37*
%TD.AperFunction*%
%TD*%
%TO.P,D102,2*%
%TO.N,Net-(D102-Pad2)*%
%TA.AperFunction,SMDPad,CuDef*%
G36*
G01*
X97346000Y-107573499D02*
X97346000Y-109723501D01*
G75*
G02*
X97096001Y-109973500I-249999J0D01*
G01*
X96070999Y-109973500D01*
G75*
G02*
X95821000Y-109723501I0J249999D01*
G01*
X95821000Y-107573499D01*
G75*
G02*
X96070999Y-107323500I249999J0D01*
G01*
X97096001Y-107323500D01*
G75*
G02*
X97346000Y-107573499I0J-249999D01*
G01*
G37*
%TD.AperFunction*%
%TO.P,D102,1*%
%TO.N,+12V*%
%TA.AperFunction,SMDPad,CuDef*%
G36*
G01*
X102021000Y-107573499D02*
X102021000Y-109723501D01*
G75*
G02*
X101771001Y-109973500I-249999J0D01*
G01*
X100745999Y-109973500D01*
G75*
G02*
X100496000Y-109723501I0J249999D01*
G01*
X100496000Y-107573499D01*
G75*
G02*
X100745999Y-107323500I249999J0D01*
G01*
X101771001Y-107323500D01*
G75*
G02*
X102021000Y-107573499I0J-249999D01*
G01*
G37*
%TD.AperFunction*%
%TD*%
%TO.P,D101,2*%
%TO.N,Net-(D101-Pad2)*%
%TA.AperFunction,SMDPad,CuDef*%
G36*
G01*
X109922999Y-110973500D02*
X112073001Y-110973500D01*
G75*
G02*
X112323000Y-111223499I0J-249999D01*
G01*
X112323000Y-112248501D01*
G75*
G02*
X112073001Y-112498500I-249999J0D01*
G01*
X109922999Y-112498500D01*
G75*
G02*
X109673000Y-112248501I0J249999D01*
G01*
X109673000Y-111223499D01*
G75*
G02*
X109922999Y-110973500I249999J0D01*
G01*
G37*
%TD.AperFunction*%
%TO.P,D101,1*%
%TO.N,+12V*%
%TA.AperFunction,SMDPad,CuDef*%
G36*
G01*
X109922999Y-106298500D02*
X112073001Y-106298500D01*
G75*
G02*
X112323000Y-106548499I0J-249999D01*
G01*
X112323000Y-107573501D01*
G75*
G02*
X112073001Y-107823500I-249999J0D01*
G01*
X109922999Y-107823500D01*
G75*
G02*
X109673000Y-107573501I0J249999D01*
G01*
X109673000Y-106548499D01*
G75*
G02*
X109922999Y-106298500I249999J0D01*
G01*
G37*
%TD.AperFunction*%
%TD*%
%TO.P,D1,2*%
%TO.N,GND*%
%TA.AperFunction,SMDPad,CuDef*%
G36*
G01*
X110795000Y-91753001D02*
X110795000Y-89602999D01*
G75*
G02*
X111044999Y-89353000I249999J0D01*
G01*
X112070001Y-89353000D01*
G75*
G02*
X112320000Y-89602999I0J-249999D01*
G01*
X112320000Y-91753001D01*
G75*
G02*
X112070001Y-92003000I-249999J0D01*
G01*
X111044999Y-92003000D01*
G75*
G02*
X110795000Y-91753001I0J249999D01*
G01*
G37*
%TD.AperFunction*%
%TO.P,D1,1*%
%TO.N,Net-(C4-Pad2)*%
%TA.AperFunction,SMDPad,CuDef*%
G36*
G01*
X106120000Y-91753001D02*
X106120000Y-89602999D01*
G75*
G02*
X106369999Y-89353000I249999J0D01*
G01*
X107395001Y-89353000D01*
G75*
G02*
X107645000Y-89602999I0J-249999D01*
G01*
X107645000Y-91753001D01*
G75*
G02*
X107395001Y-92003000I-249999J0D01*
G01*
X106369999Y-92003000D01*
G75*
G02*
X106120000Y-91753001I0J249999D01*
G01*
G37*
%TD.AperFunction*%
%TD*%
D15*
%TO.P,J101,2*%
%TO.N,Net-(D101-Pad2)*%
X110045500Y-114744500D03*
%TO.P,J101,1*%
%TO.N,+12V*%
X110045500Y-117284500D03*
%TD*%
D10*
%TO.P,J102,2*%
%TO.N,Net-(D102-Pad2)*%
X106616500Y-115125500D03*
%TO.P,J102,1*%
%TO.N,+12V*%
X106616500Y-113855500D03*
%TD*%
%TO.P,J106,2*%
%TO.N,sw_bolt*%
X99250500Y-114236500D03*
%TO.P,J106,1*%
%TO.N,+3V3*%
X99250500Y-112966500D03*
%TD*%
%TO.P,J105,2*%
%TO.N,sw_mag*%
X96139000Y-114236500D03*
%TO.P,J105,1*%
%TO.N,+3V3*%
X96139000Y-112966500D03*
%TD*%
%TO.P,J104,2*%
%TO.N,sw_selector*%
X93027500Y-114236500D03*
%TO.P,J104,1*%
%TO.N,+3V3*%
X93027500Y-112966500D03*
%TD*%
%TO.P,J103,2*%
%TO.N,sw_fire*%
X89916000Y-114236500D03*
%TO.P,J103,1*%
%TO.N,+3V3*%
X89916000Y-112966500D03*
%TD*%
D16*
%TO.P,L1,2*%
%TO.N,+3V3*%
X97409000Y-90805000D03*
%TO.P,L1,1*%
%TO.N,Net-(C4-Pad2)*%
X103251000Y-90805000D03*
%TD*%
D15*
%TO.P,J1,2*%
%TO.N,+12V*%
X113728500Y-114744500D03*
D17*
%TO.P,J1,1*%
%TO.N,GND*%
X113728500Y-117284500D03*
%TD*%
%TO.P,R3,2*%
%TO.N,GND*%
%TA.AperFunction,SMDPad,CuDef*%
G36*
G01*
X105811500Y-103869500D02*
X105811500Y-103394500D01*
G75*
G02*
X106049000Y-103157000I237500J0D01*
G01*
X106549000Y-103157000D01*
G75*
G02*
X106786500Y-103394500I0J-237500D01*
G01*
X106786500Y-103869500D01*
G75*
G02*
X106549000Y-104107000I-237500J0D01*
G01*
X106049000Y-104107000D01*
G75*
G02*
X105811500Y-103869500I0J237500D01*
G01*
G37*
%TD.AperFunction*%
%TO.P,R3,1*%
%TO.N,Net-(C3-Pad2)*%
%TA.AperFunction,SMDPad,CuDef*%
G36*
G01*
X103986500Y-103869500D02*
X103986500Y-103394500D01*
G75*
G02*
X104224000Y-103157000I237500J0D01*
G01*
X104724000Y-103157000D01*
G75*
G02*
X104961500Y-103394500I0J-237500D01*
G01*
X104961500Y-103869500D01*
G75*
G02*
X104724000Y-104107000I-237500J0D01*
G01*
X104224000Y-104107000D01*
G75*
G02*
X103986500Y-103869500I0J237500D01*
G01*
G37*
%TD.AperFunction*%
%TD*%
%TO.P,R2,2*%
%TO.N,GND*%
%TA.AperFunction,SMDPad,CuDef*%
G36*
G01*
X97298500Y-102787000D02*
X97773500Y-102787000D01*
G75*
G02*
X98011000Y-103024500I0J-237500D01*
G01*
X98011000Y-103524500D01*
G75*
G02*
X97773500Y-103762000I-237500J0D01*
G01*
X97298500Y-103762000D01*
G75*
G02*
X97061000Y-103524500I0J237500D01*
G01*
X97061000Y-103024500D01*
G75*
G02*
X97298500Y-102787000I237500J0D01*
G01*
G37*
%TD.AperFunction*%
%TO.P,R2,1*%
%TO.N,Net-(R2-Pad1)*%
%TA.AperFunction,SMDPad,CuDef*%
G36*
G01*
X97298500Y-100962000D02*
X97773500Y-100962000D01*
G75*
G02*
X98011000Y-101199500I0J-237500D01*
G01*
X98011000Y-101699500D01*
G75*
G02*
X97773500Y-101937000I-237500J0D01*
G01*
X97298500Y-101937000D01*
G75*
G02*
X97061000Y-101699500I0J237500D01*
G01*
X97061000Y-101199500D01*
G75*
G02*
X97298500Y-100962000I237500J0D01*
G01*
G37*
%TD.AperFunction*%
%TD*%
%TO.P,R4,2*%
%TO.N,GND*%
%TA.AperFunction,SMDPad,CuDef*%
G36*
G01*
X108538000Y-102048500D02*
X109013000Y-102048500D01*
G75*
G02*
X109250500Y-102286000I0J-237500D01*
G01*
X109250500Y-102786000D01*
G75*
G02*
X109013000Y-103023500I-237500J0D01*
G01*
X108538000Y-103023500D01*
G75*
G02*
X108300500Y-102786000I0J237500D01*
G01*
X108300500Y-102286000D01*
G75*
G02*
X108538000Y-102048500I237500J0D01*
G01*
G37*
%TD.AperFunction*%
%TO.P,R4,1*%
%TO.N,Net-(R4-Pad1)*%
%TA.AperFunction,SMDPad,CuDef*%
G36*
G01*
X108538000Y-100223500D02*
X109013000Y-100223500D01*
G75*
G02*
X109250500Y-100461000I0J-237500D01*
G01*
X109250500Y-100961000D01*
G75*
G02*
X109013000Y-101198500I-237500J0D01*
G01*
X108538000Y-101198500D01*
G75*
G02*
X108300500Y-100961000I0J237500D01*
G01*
X108300500Y-100461000D01*
G75*
G02*
X108538000Y-100223500I237500J0D01*
G01*
G37*
%TD.AperFunction*%
%TD*%
%TO.P,R6,2*%
%TO.N,GND*%
%TA.AperFunction,SMDPad,CuDef*%
G36*
G01*
X110494000Y-94471500D02*
X110494000Y-93996500D01*
G75*
G02*
X110731500Y-93759000I237500J0D01*
G01*
X111231500Y-93759000D01*
G75*
G02*
X111469000Y-93996500I0J-237500D01*
G01*
X111469000Y-94471500D01*
G75*
G02*
X111231500Y-94709000I-237500J0D01*
G01*
X110731500Y-94709000D01*
G75*
G02*
X110494000Y-94471500I0J237500D01*
G01*
G37*
%TD.AperFunction*%
%TO.P,R6,1*%
%TO.N,Net-(R5-Pad2)*%
%TA.AperFunction,SMDPad,CuDef*%
G36*
G01*
X108669000Y-94471500D02*
X108669000Y-93996500D01*
G75*
G02*
X108906500Y-93759000I237500J0D01*
G01*
X109406500Y-93759000D01*
G75*
G02*
X109644000Y-93996500I0J-237500D01*
G01*
X109644000Y-94471500D01*
G75*
G02*
X109406500Y-94709000I-237500J0D01*
G01*
X108906500Y-94709000D01*
G75*
G02*
X108669000Y-94471500I0J237500D01*
G01*
G37*
%TD.AperFunction*%
%TD*%
%TO.P,R5,2*%
%TO.N,Net-(R5-Pad2)*%
%TA.AperFunction,SMDPad,CuDef*%
G36*
G01*
X109013000Y-97579000D02*
X108538000Y-97579000D01*
G75*
G02*
X108300500Y-97341500I0J237500D01*
G01*
X108300500Y-96841500D01*
G75*
G02*
X108538000Y-96604000I237500J0D01*
G01*
X109013000Y-96604000D01*
G75*
G02*
X109250500Y-96841500I0J-237500D01*
G01*
X109250500Y-97341500D01*
G75*
G02*
X109013000Y-97579000I-237500J0D01*
G01*
G37*
%TD.AperFunction*%
%TO.P,R5,1*%
%TO.N,+12V*%
%TA.AperFunction,SMDPad,CuDef*%
G36*
G01*
X109013000Y-99404000D02*
X108538000Y-99404000D01*
G75*
G02*
X108300500Y-99166500I0J237500D01*
G01*
X108300500Y-98666500D01*
G75*
G02*
X108538000Y-98429000I237500J0D01*
G01*
X109013000Y-98429000D01*
G75*
G02*
X109250500Y-98666500I0J-237500D01*
G01*
X109250500Y-99166500D01*
G75*
G02*
X109013000Y-99404000I-237500J0D01*
G01*
G37*
%TD.AperFunction*%
%TD*%
D10*
%TO.P,J108,4*%
%TO.N,+3V3*%
X89027000Y-100203000D03*
%TO.P,J108,3*%
%TO.N,SCL*%
X89027000Y-98933000D03*
%TO.P,J108,2*%
%TO.N,SDA*%
X89027000Y-97663000D03*
D11*
%TO.P,J108,1*%
%TO.N,GND*%
X89027000Y-96393000D03*
%TD*%
%TO.P,C7,2*%
%TO.N,GND*%
%TA.AperFunction,SMDPad,CuDef*%
G36*
G01*
X91804500Y-88231000D02*
X91329500Y-88231000D01*
G75*
G02*
X91092000Y-87993500I0J237500D01*
G01*
X91092000Y-87393500D01*
G75*
G02*
X91329500Y-87156000I237500J0D01*
G01*
X91804500Y-87156000D01*
G75*
G02*
X92042000Y-87393500I0J-237500D01*
G01*
X92042000Y-87993500D01*
G75*
G02*
X91804500Y-88231000I-237500J0D01*
G01*
G37*
%TD.AperFunction*%
%TO.P,C7,1*%
%TO.N,+3V3*%
%TA.AperFunction,SMDPad,CuDef*%
G36*
G01*
X91804500Y-89956000D02*
X91329500Y-89956000D01*
G75*
G02*
X91092000Y-89718500I0J237500D01*
G01*
X91092000Y-89118500D01*
G75*
G02*
X91329500Y-88881000I237500J0D01*
G01*
X91804500Y-88881000D01*
G75*
G02*
X92042000Y-89118500I0J-237500D01*
G01*
X92042000Y-89718500D01*
G75*
G02*
X91804500Y-89956000I-237500J0D01*
G01*
G37*
%TD.AperFunction*%
%TD*%
%TO.P,C2,2*%
%TO.N,GND*%
%TA.AperFunction,SMDPad,CuDef*%
G36*
G01*
X94503002Y-88381000D02*
X93202998Y-88381000D01*
G75*
G02*
X92953000Y-88131002I0J249998D01*
G01*
X92953000Y-87305998D01*
G75*
G02*
X93202998Y-87056000I249998J0D01*
G01*
X94503002Y-87056000D01*
G75*
G02*
X94753000Y-87305998I0J-249998D01*
G01*
X94753000Y-88131002D01*
G75*
G02*
X94503002Y-88381000I-249998J0D01*
G01*
G37*
%TD.AperFunction*%
%TO.P,C2,1*%
%TO.N,+3V3*%
%TA.AperFunction,SMDPad,CuDef*%
G36*
G01*
X94503002Y-91506000D02*
X93202998Y-91506000D01*
G75*
G02*
X92953000Y-91256002I0J249998D01*
G01*
X92953000Y-90430998D01*
G75*
G02*
X93202998Y-90181000I249998J0D01*
G01*
X94503002Y-90181000D01*
G75*
G02*
X94753000Y-90430998I0J-249998D01*
G01*
X94753000Y-91256002D01*
G75*
G02*
X94503002Y-91506000I-249998J0D01*
G01*
G37*
%TD.AperFunction*%
%TD*%
%TO.P,C3,2*%
%TO.N,Net-(C3-Pad2)*%
%TA.AperFunction,SMDPad,CuDef*%
G36*
G01*
X101951500Y-103869500D02*
X101951500Y-103394500D01*
G75*
G02*
X102189000Y-103157000I237500J0D01*
G01*
X102789000Y-103157000D01*
G75*
G02*
X103026500Y-103394500I0J-237500D01*
G01*
X103026500Y-103869500D01*
G75*
G02*
X102789000Y-104107000I-237500J0D01*
G01*
X102189000Y-104107000D01*
G75*
G02*
X101951500Y-103869500I0J237500D01*
G01*
G37*
%TD.AperFunction*%
%TO.P,C3,1*%
%TO.N,Net-(C3-Pad1)*%
%TA.AperFunction,SMDPad,CuDef*%
G36*
G01*
X100226500Y-103869500D02*
X100226500Y-103394500D01*
G75*
G02*
X100464000Y-103157000I237500J0D01*
G01*
X101064000Y-103157000D01*
G75*
G02*
X101301500Y-103394500I0J-237500D01*
G01*
X101301500Y-103869500D01*
G75*
G02*
X101064000Y-104107000I-237500J0D01*
G01*
X100464000Y-104107000D01*
G75*
G02*
X100226500Y-103869500I0J237500D01*
G01*
G37*
%TD.AperFunction*%
%TD*%
%TO.P,C4,2*%
%TO.N,Net-(C4-Pad2)*%
%TA.AperFunction,SMDPad,CuDef*%
G36*
G01*
X103180000Y-95393500D02*
X103180000Y-95868500D01*
G75*
G02*
X102942500Y-96106000I-237500J0D01*
G01*
X102342500Y-96106000D01*
G75*
G02*
X102105000Y-95868500I0J237500D01*
G01*
X102105000Y-95393500D01*
G75*
G02*
X102342500Y-95156000I237500J0D01*
G01*
X102942500Y-95156000D01*
G75*
G02*
X103180000Y-95393500I0J-237500D01*
G01*
G37*
%TD.AperFunction*%
%TO.P,C4,1*%
%TO.N,Net-(C4-Pad1)*%
%TA.AperFunction,SMDPad,CuDef*%
G36*
G01*
X104905000Y-95393500D02*
X104905000Y-95868500D01*
G75*
G02*
X104667500Y-96106000I-237500J0D01*
G01*
X104067500Y-96106000D01*
G75*
G02*
X103830000Y-95868500I0J237500D01*
G01*
X103830000Y-95393500D01*
G75*
G02*
X104067500Y-95156000I237500J0D01*
G01*
X104667500Y-95156000D01*
G75*
G02*
X104905000Y-95393500I0J-237500D01*
G01*
G37*
%TD.AperFunction*%
%TD*%
%TO.P,C1,2*%
%TO.N,GND*%
%TA.AperFunction,SMDPad,CuDef*%
G36*
G01*
X114569002Y-106059000D02*
X113268998Y-106059000D01*
G75*
G02*
X113019000Y-105809002I0J249998D01*
G01*
X113019000Y-104983998D01*
G75*
G02*
X113268998Y-104734000I249998J0D01*
G01*
X114569002Y-104734000D01*
G75*
G02*
X114819000Y-104983998I0J-249998D01*
G01*
X114819000Y-105809002D01*
G75*
G02*
X114569002Y-106059000I-249998J0D01*
G01*
G37*
%TD.AperFunction*%
%TO.P,C1,1*%
%TO.N,+12V*%
%TA.AperFunction,SMDPad,CuDef*%
G36*
G01*
X114569002Y-109184000D02*
X113268998Y-109184000D01*
G75*
G02*
X113019000Y-108934002I0J249998D01*
G01*
X113019000Y-108108998D01*
G75*
G02*
X113268998Y-107859000I249998J0D01*
G01*
X114569002Y-107859000D01*
G75*
G02*
X114819000Y-108108998I0J-249998D01*
G01*
X114819000Y-108934002D01*
G75*
G02*
X114569002Y-109184000I-249998J0D01*
G01*
G37*
%TD.AperFunction*%
%TD*%
%TO.P,C5,2*%
%TO.N,GND*%
%TA.AperFunction,SMDPad,CuDef*%
G36*
G01*
X111235500Y-97719000D02*
X110760500Y-97719000D01*
G75*
G02*
X110523000Y-97481500I0J237500D01*
G01*
X110523000Y-96881500D01*
G75*
G02*
X110760500Y-96644000I237500J0D01*
G01*
X111235500Y-96644000D01*
G75*
G02*
X111473000Y-96881500I0J-237500D01*
G01*
X111473000Y-97481500D01*
G75*
G02*
X111235500Y-97719000I-237500J0D01*
G01*
G37*
%TD.AperFunction*%
%TO.P,C5,1*%
%TO.N,+12V*%
%TA.AperFunction,SMDPad,CuDef*%
G36*
G01*
X111235500Y-99444000D02*
X110760500Y-99444000D01*
G75*
G02*
X110523000Y-99206500I0J237500D01*
G01*
X110523000Y-98606500D01*
G75*
G02*
X110760500Y-98369000I237500J0D01*
G01*
X111235500Y-98369000D01*
G75*
G02*
X111473000Y-98606500I0J-237500D01*
G01*
X111473000Y-99206500D01*
G75*
G02*
X111235500Y-99444000I-237500J0D01*
G01*
G37*
%TD.AperFunction*%
%TD*%
%TO.P,R108,2*%
%TO.N,bolt_catch*%
%TA.AperFunction,SMDPad,CuDef*%
G36*
G01*
X94024000Y-107298500D02*
X94024000Y-106823500D01*
G75*
G02*
X94261500Y-106586000I237500J0D01*
G01*
X94761500Y-106586000D01*
G75*
G02*
X94999000Y-106823500I0J-237500D01*
G01*
X94999000Y-107298500D01*
G75*
G02*
X94761500Y-107536000I-237500J0D01*
G01*
X94261500Y-107536000D01*
G75*
G02*
X94024000Y-107298500I0J237500D01*
G01*
G37*
%TD.AperFunction*%
%TO.P,R108,1*%
%TO.N,Net-(Q102-Pad1)*%
%TA.AperFunction,SMDPad,CuDef*%
G36*
G01*
X92199000Y-107298500D02*
X92199000Y-106823500D01*
G75*
G02*
X92436500Y-106586000I237500J0D01*
G01*
X92936500Y-106586000D01*
G75*
G02*
X93174000Y-106823500I0J-237500D01*
G01*
X93174000Y-107298500D01*
G75*
G02*
X92936500Y-107536000I-237500J0D01*
G01*
X92436500Y-107536000D01*
G75*
G02*
X92199000Y-107298500I0J237500D01*
G01*
G37*
%TD.AperFunction*%
%TD*%
%TO.P,R104,2*%
%TO.N,valve*%
%TA.AperFunction,SMDPad,CuDef*%
G36*
G01*
X107208500Y-107806500D02*
X107208500Y-107331500D01*
G75*
G02*
X107446000Y-107094000I237500J0D01*
G01*
X107946000Y-107094000D01*
G75*
G02*
X108183500Y-107331500I0J-237500D01*
G01*
X108183500Y-107806500D01*
G75*
G02*
X107946000Y-108044000I-237500J0D01*
G01*
X107446000Y-108044000D01*
G75*
G02*
X107208500Y-107806500I0J237500D01*
G01*
G37*
%TD.AperFunction*%
%TO.P,R104,1*%
%TO.N,Net-(Q101-Pad1)*%
%TA.AperFunction,SMDPad,CuDef*%
G36*
G01*
X105383500Y-107806500D02*
X105383500Y-107331500D01*
G75*
G02*
X105621000Y-107094000I237500J0D01*
G01*
X106121000Y-107094000D01*
G75*
G02*
X106358500Y-107331500I0J-237500D01*
G01*
X106358500Y-107806500D01*
G75*
G02*
X106121000Y-108044000I-237500J0D01*
G01*
X105621000Y-108044000D01*
G75*
G02*
X105383500Y-107806500I0J237500D01*
G01*
G37*
%TD.AperFunction*%
%TD*%
%TO.P,R109,2*%
%TO.N,GND*%
%TA.AperFunction,SMDPad,CuDef*%
G36*
G01*
X91233000Y-107548500D02*
X90758000Y-107548500D01*
G75*
G02*
X90520500Y-107311000I0J237500D01*
G01*
X90520500Y-106811000D01*
G75*
G02*
X90758000Y-106573500I237500J0D01*
G01*
X91233000Y-106573500D01*
G75*
G02*
X91470500Y-106811000I0J-237500D01*
G01*
X91470500Y-107311000D01*
G75*
G02*
X91233000Y-107548500I-237500J0D01*
G01*
G37*
%TD.AperFunction*%
%TO.P,R109,1*%
%TO.N,Net-(Q102-Pad1)*%
%TA.AperFunction,SMDPad,CuDef*%
G36*
G01*
X91233000Y-109373500D02*
X90758000Y-109373500D01*
G75*
G02*
X90520500Y-109136000I0J237500D01*
G01*
X90520500Y-108636000D01*
G75*
G02*
X90758000Y-108398500I237500J0D01*
G01*
X91233000Y-108398500D01*
G75*
G02*
X91470500Y-108636000I0J-237500D01*
G01*
X91470500Y-109136000D01*
G75*
G02*
X91233000Y-109373500I-237500J0D01*
G01*
G37*
%TD.AperFunction*%
%TD*%
%TO.P,R105,2*%
%TO.N,GND*%
%TA.AperFunction,SMDPad,CuDef*%
G36*
G01*
X103902500Y-108883000D02*
X104377500Y-108883000D01*
G75*
G02*
X104615000Y-109120500I0J-237500D01*
G01*
X104615000Y-109620500D01*
G75*
G02*
X104377500Y-109858000I-237500J0D01*
G01*
X103902500Y-109858000D01*
G75*
G02*
X103665000Y-109620500I0J237500D01*
G01*
X103665000Y-109120500D01*
G75*
G02*
X103902500Y-108883000I237500J0D01*
G01*
G37*
%TD.AperFunction*%
%TO.P,R105,1*%
%TO.N,Net-(Q101-Pad1)*%
%TA.AperFunction,SMDPad,CuDef*%
G36*
G01*
X103902500Y-107058000D02*
X104377500Y-107058000D01*
G75*
G02*
X104615000Y-107295500I0J-237500D01*
G01*
X104615000Y-107795500D01*
G75*
G02*
X104377500Y-108033000I-237500J0D01*
G01*
X103902500Y-108033000D01*
G75*
G02*
X103665000Y-107795500I0J237500D01*
G01*
X103665000Y-107295500D01*
G75*
G02*
X103902500Y-107058000I237500J0D01*
G01*
G37*
%TD.AperFunction*%
%TD*%
D18*
%TO.P,Q102,3*%
%TO.N,Net-(D102-Pad2)*%
X94615000Y-109855000D03*
%TO.P,Q102,2*%
%TO.N,GND*%
X92615000Y-110805000D03*
%TO.P,Q102,1*%
%TO.N,Net-(Q102-Pad1)*%
X92615000Y-108905000D03*
%TD*%
%TO.P,Q101,3*%
%TO.N,Net-(D101-Pad2)*%
X107854500Y-110297000D03*
%TO.P,Q101,2*%
%TO.N,GND*%
X105854500Y-111247000D03*
%TO.P,Q101,1*%
%TO.N,Net-(Q101-Pad1)*%
X105854500Y-109347000D03*
%TD*%
D19*
%TO.N,GND*%
X109093000Y-104838500D03*
X96647000Y-86232996D03*
X106426000Y-86296500D03*
D20*
X95224600Y-104648000D03*
%TO.N,+3V3*%
X99822000Y-88392000D03*
D19*
%TO.N,+12V*%
X113194008Y-98906500D03*
D20*
%TO.N,Net-(R5-Pad2)*%
X98869500Y-98933000D03*
X106489500Y-95503994D03*
%TO.N,bolt_catch*%
X96393000Y-105664000D03*
%TO.N,valve*%
X107696000Y-106299002D03*
%TD*%
D21*
%TO.N,GND*%
X93853000Y-87718500D02*
X93814500Y-87718500D01*
X93789500Y-87693500D02*
X91567000Y-87693500D01*
X93814500Y-87718500D02*
X93789500Y-87693500D01*
X104140000Y-109370500D02*
X103465000Y-109370500D01*
X103465000Y-109370500D02*
X102870000Y-108775500D01*
X102870000Y-108775500D02*
X102870000Y-107260254D01*
X102870000Y-107260254D02*
X102870000Y-105600500D01*
X104140000Y-109370500D02*
X104140000Y-110363000D01*
X105024000Y-111247000D02*
X105854500Y-111247000D01*
X104140000Y-110363000D02*
X105024000Y-111247000D01*
X94782000Y-103274500D02*
X97536000Y-103274500D01*
X90995500Y-107061000D02*
X94782000Y-103274500D01*
X92615000Y-110805000D02*
X90617000Y-110805000D01*
X90617000Y-110805000D02*
X89598500Y-109786500D01*
X89598500Y-108458000D02*
X90995500Y-107061000D01*
X89598500Y-109786500D02*
X89598500Y-108458000D01*
D22*
X97301198Y-104648000D02*
X95790285Y-104648000D01*
X95790285Y-104648000D02*
X95224600Y-104648000D01*
X97304299Y-104644899D02*
X97301198Y-104648000D01*
D21*
X87757000Y-86995000D02*
X88138000Y-86614000D01*
X87757000Y-91313000D02*
X87757000Y-86995000D01*
X88392000Y-91948000D02*
X87757000Y-91313000D01*
X89027000Y-91948000D02*
X88392000Y-91948000D01*
D23*
%TO.N,+3V3*%
X97536000Y-90932000D02*
X97409000Y-90805000D01*
D21*
X93853000Y-90843500D02*
X93891500Y-90843500D01*
X93853000Y-90843500D02*
X92939000Y-90843500D01*
X91567000Y-89471500D02*
X91567000Y-89418500D01*
X92939000Y-90843500D02*
X91567000Y-89471500D01*
X97370500Y-90843500D02*
X97409000Y-90805000D01*
X93853000Y-90843500D02*
X97370500Y-90843500D01*
X99822000Y-88392000D02*
X97409000Y-90805000D01*
X99250500Y-112966500D02*
X89916000Y-112966500D01*
X96202500Y-96012000D02*
X96202500Y-94805500D01*
X97409000Y-93599000D02*
X97409000Y-90805000D01*
X96202500Y-94805500D02*
X97409000Y-93599000D01*
X95202500Y-97012000D02*
X96202500Y-96012000D01*
X95202500Y-99262000D02*
X95202500Y-97012000D01*
X93853000Y-95885000D02*
X93853000Y-90843500D01*
X93853000Y-95885000D02*
X89535000Y-100203000D01*
X89535000Y-100203000D02*
X89027000Y-100203000D01*
X89916000Y-112966500D02*
X88110499Y-111160999D01*
X88110499Y-111160999D02*
X88110499Y-103837301D01*
X88110499Y-103837301D02*
X89027000Y-102920800D01*
X89027000Y-102920800D02*
X89027000Y-100203000D01*
X99957606Y-112966500D02*
X99250500Y-112966500D01*
X101600000Y-114608894D02*
X99957606Y-112966500D01*
X101600000Y-116840000D02*
X101600000Y-114608894D01*
X89408000Y-88138000D02*
X89027000Y-88138000D01*
X90688500Y-89418500D02*
X89408000Y-88138000D01*
X91567000Y-89418500D02*
X90688500Y-89418500D01*
%TO.N,+12V*%
X111061500Y-106997500D02*
X110998000Y-107061000D01*
X112458500Y-107061000D02*
X113919000Y-108521500D01*
X110998000Y-107061000D02*
X112458500Y-107061000D01*
X101258500Y-109640500D02*
X101258500Y-108648500D01*
X106616500Y-113855500D02*
X105537000Y-112776000D01*
X101258500Y-109973500D02*
X101258500Y-108648500D01*
X104061000Y-112776000D02*
X101258500Y-109973500D01*
X105537000Y-112776000D02*
X104061000Y-112776000D01*
X108759000Y-98933000D02*
X108775500Y-98916500D01*
X105853000Y-98933000D02*
X108759000Y-98933000D01*
X108204000Y-115443000D02*
X110045500Y-117284500D01*
X108204000Y-114427000D02*
X108204000Y-115443000D01*
X107632500Y-113855500D02*
X108204000Y-114427000D01*
X106616500Y-113855500D02*
X107632500Y-113855500D01*
X110045500Y-117094000D02*
X110045500Y-117284500D01*
X112395000Y-114744500D02*
X110045500Y-117094000D01*
X112395000Y-114744500D02*
X113728500Y-114744500D01*
X113728500Y-108712000D02*
X113919000Y-108521500D01*
X113728500Y-114744500D02*
X113728500Y-108712000D01*
X110988000Y-98916500D02*
X110998000Y-98906500D01*
X108775500Y-98916500D02*
X110988000Y-98916500D01*
X110998000Y-98906500D02*
X113194008Y-98906500D01*
X113194008Y-98832490D02*
X113194008Y-98906500D01*
D22*
%TO.N,Net-(C3-Pad2)*%
X102489000Y-103632000D02*
X104474000Y-103632000D01*
%TO.N,Net-(C3-Pad1)*%
X100457000Y-103632000D02*
X100764000Y-103632000D01*
X100903000Y-100203000D02*
X102362000Y-100203000D01*
X102362000Y-100203000D02*
X102997000Y-100838000D01*
X102997000Y-101399000D02*
X100764000Y-103632000D01*
X102997000Y-100838000D02*
X102997000Y-101399000D01*
D21*
%TO.N,Net-(C4-Pad2)*%
X103251000Y-90805000D02*
X103251000Y-90551000D01*
%TO.N,Net-(C4-Pad1)*%
X105853000Y-97116500D02*
X104367500Y-95631000D01*
X105853000Y-97663000D02*
X105853000Y-97116500D01*
%TO.N,Net-(R4-Pad1)*%
X108267500Y-100203000D02*
X108775500Y-100711000D01*
X105853000Y-100203000D02*
X108267500Y-100203000D01*
%TO.N,Net-(D102-Pad2)*%
X96583500Y-108648500D02*
X96583500Y-109093000D01*
X95821500Y-109855000D02*
X94615000Y-109855000D01*
X96583500Y-109093000D02*
X95821500Y-109855000D01*
X106616500Y-115125500D02*
X105537000Y-115125500D01*
X96583500Y-108648500D02*
X99123500Y-111188500D01*
X99123500Y-111188500D02*
X100901500Y-111188500D01*
X104838500Y-115125500D02*
X105537000Y-115125500D01*
X100901500Y-111188500D02*
X104838500Y-115125500D01*
%TO.N,Net-(Q101-Pad1)*%
X105847500Y-107545500D02*
X105871000Y-107569000D01*
X104140000Y-107545500D02*
X105847500Y-107545500D01*
X105871000Y-109330500D02*
X105854500Y-109347000D01*
X105871000Y-107569000D02*
X105871000Y-109330500D01*
%TO.N,Net-(Q102-Pad1)*%
X92686500Y-108833500D02*
X92615000Y-108905000D01*
X92686500Y-107061000D02*
X92686500Y-108833500D01*
X91014500Y-108905000D02*
X90995500Y-108886000D01*
X92615000Y-108905000D02*
X91014500Y-108905000D01*
D23*
%TO.N,Net-(R5-Pad2)*%
X100903000Y-98933000D02*
X99060000Y-98933000D01*
X99060000Y-98933000D02*
X98869500Y-98933000D01*
X108775500Y-97091500D02*
X108585000Y-97091500D01*
X109156500Y-94234000D02*
X108902500Y-94234000D01*
X107759494Y-94234000D02*
X106489500Y-95503994D01*
X109156500Y-94234000D02*
X107759494Y-94234000D01*
X108775500Y-95885000D02*
X108775500Y-97091500D01*
X109156500Y-95504000D02*
X108775500Y-95885000D01*
X109156500Y-94234000D02*
X109156500Y-95504000D01*
D21*
%TO.N,Net-(D101-Pad2)*%
X109293500Y-111736000D02*
X107854500Y-110297000D01*
X110998000Y-111736000D02*
X109293500Y-111736000D01*
X110998000Y-113792000D02*
X110045500Y-114744500D01*
X110998000Y-111736000D02*
X110998000Y-113792000D01*
D23*
%TO.N,bolt_catch*%
X94511500Y-107061000D02*
X94996000Y-107061000D01*
X94996000Y-107061000D02*
X96393000Y-105664000D01*
%TO.N,valve*%
X107696000Y-107569000D02*
X107696000Y-106299002D01*
%TO.N,Net-(R2-Pad1)*%
X100879500Y-101449500D02*
X100903000Y-101473000D01*
X97536000Y-101449500D02*
X100879500Y-101449500D01*
D21*
X97536000Y-99595500D02*
X97202500Y-99262000D01*
X97536000Y-101449500D02*
X97536000Y-99595500D01*
%TD*%
D24*
%TO.N,GND*%
X115785295Y-85424942D02*
X115949229Y-85474770D01*
X116100263Y-85555679D01*
X116232567Y-85664545D01*
X116341042Y-85797171D01*
X116421502Y-85948442D01*
X116427000Y-85966725D01*
X116427001Y-118010379D01*
X116411048Y-118170227D01*
X116361264Y-118333683D01*
X116280575Y-118484298D01*
X116172073Y-118616298D01*
X116039929Y-118724612D01*
X115889199Y-118805096D01*
X115725680Y-118854653D01*
X115549392Y-118872000D01*
X112893234Y-118872000D01*
X112716811Y-118854624D01*
X112553150Y-118804978D01*
X112402328Y-118724362D01*
X112270130Y-118615870D01*
X112161638Y-118483672D01*
X112081022Y-118332850D01*
X112031376Y-118169189D01*
X112027960Y-118134500D01*
X112240428Y-118134500D01*
X112252688Y-118258982D01*
X112288998Y-118378680D01*
X112347963Y-118488994D01*
X112427315Y-118585685D01*
X112524006Y-118665037D01*
X112634320Y-118724002D01*
X112754018Y-118760312D01*
X112878500Y-118772572D01*
X113442750Y-118769500D01*
X113601500Y-118610750D01*
X113601500Y-117411500D01*
X113855500Y-117411500D01*
X113855500Y-118610750D01*
X114014250Y-118769500D01*
X114578500Y-118772572D01*
X114702982Y-118760312D01*
X114822680Y-118724002D01*
X114932994Y-118665037D01*
X115029685Y-118585685D01*
X115109037Y-118488994D01*
X115168002Y-118378680D01*
X115204312Y-118258982D01*
X115216572Y-118134500D01*
X115213500Y-117570250D01*
X115054750Y-117411500D01*
X113855500Y-117411500D01*
X113601500Y-117411500D01*
X112402250Y-117411500D01*
X112243500Y-117570250D01*
X112240428Y-118134500D01*
X112027960Y-118134500D01*
X112014000Y-117992766D01*
X112014000Y-117084234D01*
X112031376Y-116907811D01*
X112081022Y-116744150D01*
X112161638Y-116593328D01*
X112240768Y-116496908D01*
X112243500Y-116998750D01*
X112402250Y-117157500D01*
X113601500Y-117157500D01*
X113601500Y-117137500D01*
X113855500Y-117137500D01*
X113855500Y-117157500D01*
X115054750Y-117157500D01*
X115213500Y-116998750D01*
X115216572Y-116434500D01*
X115204312Y-116310018D01*
X115168002Y-116190320D01*
X115109037Y-116080006D01*
X115029685Y-115983315D01*
X114932994Y-115903963D01*
X114865218Y-115867736D01*
X114867279Y-115865675D01*
X114991642Y-115714138D01*
X115005474Y-115693437D01*
X115097884Y-115520550D01*
X115107412Y-115497549D01*
X115164317Y-115309956D01*
X115169173Y-115285538D01*
X115188388Y-115090448D01*
X115189000Y-115078000D01*
X115189000Y-115013929D01*
X115213500Y-114890760D01*
X115213500Y-114598240D01*
X115189000Y-114475071D01*
X115189000Y-109568496D01*
X115196962Y-109561962D01*
X115307405Y-109427387D01*
X115389472Y-109273852D01*
X115440008Y-109107256D01*
X115457072Y-108934002D01*
X115457072Y-108108998D01*
X115440008Y-107935744D01*
X115389472Y-107769148D01*
X115307405Y-107615613D01*
X115196962Y-107481038D01*
X115189000Y-107474504D01*
X115189000Y-107235500D01*
X115188388Y-107223052D01*
X115169173Y-107027962D01*
X115164317Y-107003544D01*
X115107412Y-106815951D01*
X115097884Y-106792950D01*
X115026605Y-106659597D01*
X115063180Y-106648502D01*
X115173494Y-106589537D01*
X115270185Y-106510185D01*
X115349537Y-106413494D01*
X115408502Y-106303180D01*
X115444812Y-106183482D01*
X115457072Y-106059000D01*
X115454000Y-105682250D01*
X115295250Y-105523500D01*
X114046000Y-105523500D01*
X114046000Y-105543500D01*
X113792000Y-105543500D01*
X113792000Y-105523500D01*
X112542750Y-105523500D01*
X112384000Y-105682250D01*
X112383699Y-105719185D01*
X112246255Y-105677492D01*
X112073001Y-105660428D01*
X109922999Y-105660428D01*
X109749745Y-105677492D01*
X109583149Y-105728028D01*
X109429613Y-105810095D01*
X109295038Y-105920538D01*
X109184595Y-106055113D01*
X109156059Y-106108500D01*
X108713384Y-106108500D01*
X108691226Y-105997104D01*
X108613205Y-105808746D01*
X108499937Y-105639228D01*
X108355774Y-105495065D01*
X108186256Y-105381797D01*
X107997898Y-105303776D01*
X107797939Y-105264002D01*
X107594061Y-105264002D01*
X107394102Y-105303776D01*
X107205744Y-105381797D01*
X107036226Y-105495065D01*
X106892063Y-105639228D01*
X106778795Y-105808746D01*
X106700774Y-105997104D01*
X106678616Y-106108500D01*
X98224734Y-106108500D01*
X98048311Y-106091124D01*
X97884650Y-106041478D01*
X97733828Y-105960862D01*
X97601630Y-105852370D01*
X97493138Y-105720172D01*
X97428000Y-105598307D01*
X97428000Y-105562061D01*
X97388226Y-105362102D01*
X97349336Y-105268214D01*
X97345500Y-105229266D01*
X97345500Y-104301750D01*
X97409000Y-104238250D01*
X97409000Y-103484260D01*
X97412522Y-103472650D01*
X97450552Y-103401500D01*
X97663000Y-103401500D01*
X97663000Y-104238250D01*
X97821750Y-104397000D01*
X98011000Y-104400072D01*
X98135482Y-104387812D01*
X98255180Y-104351502D01*
X98365494Y-104292537D01*
X98462185Y-104213185D01*
X98541537Y-104116494D01*
X98600502Y-104006180D01*
X98636812Y-103886482D01*
X98649072Y-103762000D01*
X98646000Y-103560250D01*
X98487250Y-103401500D01*
X97663000Y-103401500D01*
X97450552Y-103401500D01*
X97493138Y-103321828D01*
X97601630Y-103189630D01*
X97663000Y-103139265D01*
X97663000Y-103147500D01*
X98487250Y-103147500D01*
X98646000Y-102988750D01*
X98646841Y-102933500D01*
X99682491Y-102933500D01*
X99718555Y-102940674D01*
X99655077Y-103059433D01*
X99605252Y-103223684D01*
X99588428Y-103394500D01*
X99588428Y-103869500D01*
X99605252Y-104040316D01*
X99655077Y-104204567D01*
X99735988Y-104355942D01*
X99844877Y-104488623D01*
X99977558Y-104597512D01*
X100128933Y-104678423D01*
X100293184Y-104728248D01*
X100464000Y-104745072D01*
X101064000Y-104745072D01*
X101234816Y-104728248D01*
X101399067Y-104678423D01*
X101550442Y-104597512D01*
X101626500Y-104535093D01*
X101702558Y-104597512D01*
X101853933Y-104678423D01*
X102018184Y-104728248D01*
X102189000Y-104745072D01*
X102789000Y-104745072D01*
X102959816Y-104728248D01*
X103124067Y-104678423D01*
X103275442Y-104597512D01*
X103399622Y-104495600D01*
X103613378Y-104495600D01*
X103737558Y-104597512D01*
X103888933Y-104678423D01*
X104053184Y-104728248D01*
X104224000Y-104745072D01*
X104724000Y-104745072D01*
X104894816Y-104728248D01*
X105059067Y-104678423D01*
X105210442Y-104597512D01*
X105319283Y-104508188D01*
X105360315Y-104558185D01*
X105457006Y-104637537D01*
X105567320Y-104696502D01*
X105687018Y-104732812D01*
X105811500Y-104745072D01*
X106013250Y-104742000D01*
X106172000Y-104583250D01*
X106172000Y-103759000D01*
X106426000Y-103759000D01*
X106426000Y-104583250D01*
X106584750Y-104742000D01*
X106786500Y-104745072D01*
X106898919Y-104734000D01*
X112380928Y-104734000D01*
X112384000Y-105110750D01*
X112542750Y-105269500D01*
X113792000Y-105269500D01*
X113792000Y-104257750D01*
X114046000Y-104257750D01*
X114046000Y-105269500D01*
X115295250Y-105269500D01*
X115454000Y-105110750D01*
X115457072Y-104734000D01*
X115444812Y-104609518D01*
X115408502Y-104489820D01*
X115349537Y-104379506D01*
X115270185Y-104282815D01*
X115173494Y-104203463D01*
X115063180Y-104144498D01*
X114943482Y-104108188D01*
X114819000Y-104095928D01*
X114204750Y-104099000D01*
X114046000Y-104257750D01*
X113792000Y-104257750D01*
X113633250Y-104099000D01*
X113019000Y-104095928D01*
X112894518Y-104108188D01*
X112774820Y-104144498D01*
X112664506Y-104203463D01*
X112567815Y-104282815D01*
X112488463Y-104379506D01*
X112429498Y-104489820D01*
X112393188Y-104609518D01*
X112380928Y-104734000D01*
X106898919Y-104734000D01*
X106910982Y-104732812D01*
X107030680Y-104696502D01*
X107140994Y-104637537D01*
X107237685Y-104558185D01*
X107317037Y-104461494D01*
X107376002Y-104351180D01*
X107412312Y-104231482D01*
X107424572Y-104107000D01*
X107421500Y-103917750D01*
X107262750Y-103759000D01*
X106426000Y-103759000D01*
X106172000Y-103759000D01*
X106152000Y-103759000D01*
X106152000Y-103505000D01*
X106172000Y-103505000D01*
X106172000Y-102680750D01*
X106426000Y-102680750D01*
X106426000Y-103505000D01*
X107262750Y-103505000D01*
X107421500Y-103346250D01*
X107424572Y-103157000D01*
X107412312Y-103032518D01*
X107409577Y-103023500D01*
X107662428Y-103023500D01*
X107674688Y-103147982D01*
X107710998Y-103267680D01*
X107769963Y-103377994D01*
X107849315Y-103474685D01*
X107946006Y-103554037D01*
X108056320Y-103613002D01*
X108176018Y-103649312D01*
X108300500Y-103661572D01*
X108489750Y-103658500D01*
X108648500Y-103499750D01*
X108648500Y-102663000D01*
X108902500Y-102663000D01*
X108902500Y-103499750D01*
X109061250Y-103658500D01*
X109250500Y-103661572D01*
X109374982Y-103649312D01*
X109494680Y-103613002D01*
X109604994Y-103554037D01*
X109701685Y-103474685D01*
X109781037Y-103377994D01*
X109840002Y-103267680D01*
X109876312Y-103147982D01*
X109888572Y-103023500D01*
X109885500Y-102821750D01*
X109726750Y-102663000D01*
X108902500Y-102663000D01*
X108648500Y-102663000D01*
X107824250Y-102663000D01*
X107665500Y-102821750D01*
X107662428Y-103023500D01*
X107409577Y-103023500D01*
X107376002Y-102912820D01*
X107317037Y-102802506D01*
X107237685Y-102705815D01*
X107140994Y-102626463D01*
X107030680Y-102567498D01*
X106910982Y-102531188D01*
X106786500Y-102518928D01*
X106584750Y-102522000D01*
X106426000Y-102680750D01*
X106172000Y-102680750D01*
X106013250Y-102522000D01*
X105811500Y-102518928D01*
X105687018Y-102531188D01*
X105567320Y-102567498D01*
X105457006Y-102626463D01*
X105360315Y-102705815D01*
X105319283Y-102755812D01*
X105210442Y-102666488D01*
X105059067Y-102585577D01*
X104894816Y-102535752D01*
X104724000Y-102518928D01*
X104224000Y-102518928D01*
X104053184Y-102535752D01*
X103925850Y-102574378D01*
X103930503Y-102550466D01*
X103948914Y-102359463D01*
X103949500Y-102347278D01*
X103949500Y-102098234D01*
X103966876Y-101921811D01*
X104012017Y-101773000D01*
X104239928Y-101773000D01*
X104252188Y-101897482D01*
X104288498Y-102017180D01*
X104347463Y-102127494D01*
X104426815Y-102224185D01*
X104523506Y-102303537D01*
X104633820Y-102362502D01*
X104753518Y-102398812D01*
X104878000Y-102411072D01*
X105567250Y-102408000D01*
X105726000Y-102249250D01*
X105726000Y-101600000D01*
X105980000Y-101600000D01*
X105980000Y-102249250D01*
X106138750Y-102408000D01*
X106828000Y-102411072D01*
X106952482Y-102398812D01*
X107072180Y-102362502D01*
X107182494Y-102303537D01*
X107279185Y-102224185D01*
X107358537Y-102127494D01*
X107417502Y-102017180D01*
X107453812Y-101897482D01*
X107466072Y-101773000D01*
X107463000Y-101758750D01*
X107304250Y-101600000D01*
X105980000Y-101600000D01*
X105726000Y-101600000D01*
X104401750Y-101600000D01*
X104243000Y-101758750D01*
X104239928Y-101773000D01*
X104012017Y-101773000D01*
X104016522Y-101758150D01*
X104097138Y-101607328D01*
X104205630Y-101475130D01*
X104337828Y-101366638D01*
X104392934Y-101337184D01*
X104401750Y-101346000D01*
X105726000Y-101346000D01*
X105726000Y-101326000D01*
X105980000Y-101326000D01*
X105980000Y-101346000D01*
X107304250Y-101346000D01*
X107400672Y-101249578D01*
X107450277Y-101274853D01*
X107513147Y-101337723D01*
X107553510Y-101416939D01*
X107590765Y-101652164D01*
X107597051Y-101676253D01*
X107603043Y-101689954D01*
X107661670Y-101805015D01*
X107675093Y-101825983D01*
X107685025Y-101837161D01*
X107697309Y-101849445D01*
X107674688Y-101924018D01*
X107662428Y-102048500D01*
X107665500Y-102250250D01*
X107824250Y-102409000D01*
X108648500Y-102409000D01*
X108648500Y-102389000D01*
X108902500Y-102389000D01*
X108902500Y-102409000D01*
X109726750Y-102409000D01*
X109885500Y-102250250D01*
X109888572Y-102048500D01*
X109888178Y-102044500D01*
X111458500Y-102044500D01*
X111470948Y-102043888D01*
X111666038Y-102024673D01*
X111690456Y-102019817D01*
X111878049Y-101962912D01*
X111901050Y-101953384D01*
X112073937Y-101860974D01*
X112094638Y-101847142D01*
X112246175Y-101722779D01*
X112263779Y-101705175D01*
X112388142Y-101553638D01*
X112401974Y-101532937D01*
X112494384Y-101360050D01*
X112503912Y-101337049D01*
X112560817Y-101149456D01*
X112565673Y-101125038D01*
X112584888Y-100929948D01*
X112585500Y-100917500D01*
X112585500Y-100207680D01*
X112775434Y-100286353D01*
X113052673Y-100341500D01*
X113335343Y-100341500D01*
X113612582Y-100286353D01*
X113873735Y-100178180D01*
X114108767Y-100021137D01*
X114308645Y-99821259D01*
X114465688Y-99586227D01*
X114573861Y-99325074D01*
X114629008Y-99047835D01*
X114629008Y-98765165D01*
X114573861Y-98487926D01*
X114465688Y-98226773D01*
X114308645Y-97991741D01*
X114108767Y-97791863D01*
X113873735Y-97634820D01*
X113612582Y-97526647D01*
X113335343Y-97471500D01*
X113052673Y-97471500D01*
X112775434Y-97526647D01*
X112514281Y-97634820D01*
X112279249Y-97791863D01*
X112245906Y-97825207D01*
X112237494Y-97816795D01*
X112215259Y-97799064D01*
X112109718Y-97732748D01*
X112111072Y-97719000D01*
X112108000Y-97467250D01*
X111949250Y-97308500D01*
X111125000Y-97308500D01*
X111125000Y-97328500D01*
X111082802Y-97328500D01*
X111004396Y-97203718D01*
X110952796Y-97056251D01*
X110934500Y-96893872D01*
X110934500Y-96167750D01*
X111125000Y-96167750D01*
X111125000Y-97054500D01*
X111949250Y-97054500D01*
X112108000Y-96895750D01*
X112111072Y-96644000D01*
X112098812Y-96519518D01*
X112062502Y-96399820D01*
X112003537Y-96289506D01*
X111924185Y-96192815D01*
X111827494Y-96113463D01*
X111717180Y-96054498D01*
X111597482Y-96018188D01*
X111473000Y-96005928D01*
X111283750Y-96009000D01*
X111125000Y-96167750D01*
X110934500Y-96167750D01*
X110934500Y-94361000D01*
X111108500Y-94361000D01*
X111108500Y-95185250D01*
X111267250Y-95344000D01*
X111469000Y-95347072D01*
X111593482Y-95334812D01*
X111713180Y-95298502D01*
X111823494Y-95239537D01*
X111920185Y-95160185D01*
X111999537Y-95063494D01*
X112058502Y-94953180D01*
X112094812Y-94833482D01*
X112107072Y-94709000D01*
X112104000Y-94519750D01*
X111945250Y-94361000D01*
X111108500Y-94361000D01*
X110934500Y-94361000D01*
X110934500Y-93282750D01*
X111108500Y-93282750D01*
X111108500Y-94107000D01*
X111945250Y-94107000D01*
X112104000Y-93948250D01*
X112107072Y-93759000D01*
X112094812Y-93634518D01*
X112058502Y-93514820D01*
X111999537Y-93404506D01*
X111920185Y-93307815D01*
X111823494Y-93228463D01*
X111713180Y-93169498D01*
X111593482Y-93133188D01*
X111469000Y-93120928D01*
X111267250Y-93124000D01*
X111108500Y-93282750D01*
X110934500Y-93282750D01*
X110934500Y-92754259D01*
X110948882Y-92681952D01*
X110976981Y-92639899D01*
X111271750Y-92638000D01*
X111430500Y-92479250D01*
X111430500Y-92398569D01*
X111462846Y-92350160D01*
X111474582Y-92328203D01*
X111481809Y-92304378D01*
X111503560Y-92195026D01*
X111506000Y-92170250D01*
X111506000Y-90805000D01*
X111684500Y-90805000D01*
X111684500Y-92479250D01*
X111843250Y-92638000D01*
X112320000Y-92641072D01*
X112444482Y-92628812D01*
X112564180Y-92592502D01*
X112674494Y-92533537D01*
X112771185Y-92454185D01*
X112850537Y-92357494D01*
X112909502Y-92247180D01*
X112945812Y-92127482D01*
X112958072Y-92003000D01*
X112955000Y-90963750D01*
X112796250Y-90805000D01*
X111684500Y-90805000D01*
X111506000Y-90805000D01*
X111506000Y-88876750D01*
X111684500Y-88876750D01*
X111684500Y-90551000D01*
X112796250Y-90551000D01*
X112955000Y-90392250D01*
X112958072Y-89353000D01*
X112945812Y-89228518D01*
X112909502Y-89108820D01*
X112850537Y-88998506D01*
X112771185Y-88901815D01*
X112674494Y-88822463D01*
X112564180Y-88763498D01*
X112444482Y-88727188D01*
X112320000Y-88714928D01*
X111843250Y-88718000D01*
X111684500Y-88876750D01*
X111506000Y-88876750D01*
X111506000Y-88251064D01*
X111505387Y-88238600D01*
X111486122Y-88043257D01*
X111481252Y-88018808D01*
X111424199Y-87830991D01*
X111414647Y-87807965D01*
X111322005Y-87634912D01*
X111308139Y-87614194D01*
X111183476Y-87462572D01*
X111165831Y-87444963D01*
X111013952Y-87320613D01*
X110993206Y-87306790D01*
X110819962Y-87214505D01*
X110796917Y-87205001D01*
X110608984Y-87148335D01*
X110584525Y-87143516D01*
X110389142Y-87124654D01*
X110376676Y-87124066D01*
X96549056Y-87152577D01*
X96535840Y-87153294D01*
X96330757Y-87175182D01*
X96304905Y-87180708D01*
X96108797Y-87244580D01*
X96084649Y-87255339D01*
X95906012Y-87358427D01*
X95884615Y-87373952D01*
X95731190Y-87511789D01*
X95713470Y-87531406D01*
X95591905Y-87698019D01*
X95478222Y-87853763D01*
X95351351Y-87967601D01*
X95229250Y-87845500D01*
X93980000Y-87845500D01*
X93980000Y-87865500D01*
X93726000Y-87865500D01*
X93726000Y-87845500D01*
X92543250Y-87845500D01*
X92518250Y-87820500D01*
X91694000Y-87820500D01*
X91694000Y-87840500D01*
X91440000Y-87840500D01*
X91440000Y-87820500D01*
X90615750Y-87820500D01*
X90526644Y-87909606D01*
X90159583Y-87542545D01*
X90147277Y-87449073D01*
X90138696Y-87417049D01*
X90075259Y-87263899D01*
X90058682Y-87235188D01*
X89997920Y-87156000D01*
X90453928Y-87156000D01*
X90457000Y-87407750D01*
X90615750Y-87566500D01*
X91440000Y-87566500D01*
X91440000Y-86679750D01*
X91694000Y-86679750D01*
X91694000Y-87566500D01*
X92451750Y-87566500D01*
X92476750Y-87591500D01*
X93726000Y-87591500D01*
X93726000Y-86579750D01*
X93980000Y-86579750D01*
X93980000Y-87591500D01*
X95229250Y-87591500D01*
X95388000Y-87432750D01*
X95391072Y-87056000D01*
X95378812Y-86931518D01*
X95342502Y-86811820D01*
X95283537Y-86701506D01*
X95204185Y-86604815D01*
X95107494Y-86525463D01*
X94997180Y-86466498D01*
X94877482Y-86430188D01*
X94753000Y-86417928D01*
X94138750Y-86421000D01*
X93980000Y-86579750D01*
X93726000Y-86579750D01*
X93567250Y-86421000D01*
X92953000Y-86417928D01*
X92828518Y-86430188D01*
X92708820Y-86466498D01*
X92598506Y-86525463D01*
X92501815Y-86604815D01*
X92449303Y-86668802D01*
X92396494Y-86625463D01*
X92286180Y-86566498D01*
X92166482Y-86530188D01*
X92042000Y-86517928D01*
X91852750Y-86521000D01*
X91694000Y-86679750D01*
X91440000Y-86679750D01*
X91281250Y-86521000D01*
X91092000Y-86517928D01*
X90967518Y-86530188D01*
X90847820Y-86566498D01*
X90737506Y-86625463D01*
X90640815Y-86704815D01*
X90561463Y-86801506D01*
X90502498Y-86911820D01*
X90466188Y-87031518D01*
X90453928Y-87156000D01*
X89997920Y-87156000D01*
X89957769Y-87103675D01*
X89934325Y-87080231D01*
X89802812Y-86979318D01*
X89774101Y-86962741D01*
X89620951Y-86899304D01*
X89588927Y-86890723D01*
X89424577Y-86869086D01*
X89408000Y-86868000D01*
X88367378Y-86868000D01*
X88197934Y-86848908D01*
X88043756Y-86794960D01*
X87905450Y-86708056D01*
X87797000Y-86599606D01*
X87797000Y-85675894D01*
X87905450Y-85567444D01*
X88043756Y-85480540D01*
X88197934Y-85426592D01*
X88367378Y-85407500D01*
X115608537Y-85407500D01*
X115785295Y-85424942D01*
%TA.AperFunction,Conductor*%
D25*
G36*
X115785295Y-85424942D02*
G01*
X115949229Y-85474770D01*
X116100263Y-85555679D01*
X116232567Y-85664545D01*
X116341042Y-85797171D01*
X116421502Y-85948442D01*
X116427000Y-85966725D01*
X116427001Y-118010379D01*
X116411048Y-118170227D01*
X116361264Y-118333683D01*
X116280575Y-118484298D01*
X116172073Y-118616298D01*
X116039929Y-118724612D01*
X115889199Y-118805096D01*
X115725680Y-118854653D01*
X115549392Y-118872000D01*
X112893234Y-118872000D01*
X112716811Y-118854624D01*
X112553150Y-118804978D01*
X112402328Y-118724362D01*
X112270130Y-118615870D01*
X112161638Y-118483672D01*
X112081022Y-118332850D01*
X112031376Y-118169189D01*
X112027960Y-118134500D01*
X112240428Y-118134500D01*
X112252688Y-118258982D01*
X112288998Y-118378680D01*
X112347963Y-118488994D01*
X112427315Y-118585685D01*
X112524006Y-118665037D01*
X112634320Y-118724002D01*
X112754018Y-118760312D01*
X112878500Y-118772572D01*
X113442750Y-118769500D01*
X113601500Y-118610750D01*
X113601500Y-117411500D01*
X113855500Y-117411500D01*
X113855500Y-118610750D01*
X114014250Y-118769500D01*
X114578500Y-118772572D01*
X114702982Y-118760312D01*
X114822680Y-118724002D01*
X114932994Y-118665037D01*
X115029685Y-118585685D01*
X115109037Y-118488994D01*
X115168002Y-118378680D01*
X115204312Y-118258982D01*
X115216572Y-118134500D01*
X115213500Y-117570250D01*
X115054750Y-117411500D01*
X113855500Y-117411500D01*
X113601500Y-117411500D01*
X112402250Y-117411500D01*
X112243500Y-117570250D01*
X112240428Y-118134500D01*
X112027960Y-118134500D01*
X112014000Y-117992766D01*
X112014000Y-117084234D01*
X112031376Y-116907811D01*
X112081022Y-116744150D01*
X112161638Y-116593328D01*
X112240768Y-116496908D01*
X112243500Y-116998750D01*
X112402250Y-117157500D01*
X113601500Y-117157500D01*
X113601500Y-117137500D01*
X113855500Y-117137500D01*
X113855500Y-117157500D01*
X115054750Y-117157500D01*
X115213500Y-116998750D01*
X115216572Y-116434500D01*
X115204312Y-116310018D01*
X115168002Y-116190320D01*
X115109037Y-116080006D01*
X115029685Y-115983315D01*
X114932994Y-115903963D01*
X114865218Y-115867736D01*
X114867279Y-115865675D01*
X114991642Y-115714138D01*
X115005474Y-115693437D01*
X115097884Y-115520550D01*
X115107412Y-115497549D01*
X115164317Y-115309956D01*
X115169173Y-115285538D01*
X115188388Y-115090448D01*
X115189000Y-115078000D01*
X115189000Y-115013929D01*
X115213500Y-114890760D01*
X115213500Y-114598240D01*
X115189000Y-114475071D01*
X115189000Y-109568496D01*
X115196962Y-109561962D01*
X115307405Y-109427387D01*
X115389472Y-109273852D01*
X115440008Y-109107256D01*
X115457072Y-108934002D01*
X115457072Y-108108998D01*
X115440008Y-107935744D01*
X115389472Y-107769148D01*
X115307405Y-107615613D01*
X115196962Y-107481038D01*
X115189000Y-107474504D01*
X115189000Y-107235500D01*
X115188388Y-107223052D01*
X115169173Y-107027962D01*
X115164317Y-107003544D01*
X115107412Y-106815951D01*
X115097884Y-106792950D01*
X115026605Y-106659597D01*
X115063180Y-106648502D01*
X115173494Y-106589537D01*
X115270185Y-106510185D01*
X115349537Y-106413494D01*
X115408502Y-106303180D01*
X115444812Y-106183482D01*
X115457072Y-106059000D01*
X115454000Y-105682250D01*
X115295250Y-105523500D01*
X114046000Y-105523500D01*
X114046000Y-105543500D01*
X113792000Y-105543500D01*
X113792000Y-105523500D01*
X112542750Y-105523500D01*
X112384000Y-105682250D01*
X112383699Y-105719185D01*
X112246255Y-105677492D01*
X112073001Y-105660428D01*
X109922999Y-105660428D01*
X109749745Y-105677492D01*
X109583149Y-105728028D01*
X109429613Y-105810095D01*
X109295038Y-105920538D01*
X109184595Y-106055113D01*
X109156059Y-106108500D01*
X108713384Y-106108500D01*
X108691226Y-105997104D01*
X108613205Y-105808746D01*
X108499937Y-105639228D01*
X108355774Y-105495065D01*
X108186256Y-105381797D01*
X107997898Y-105303776D01*
X107797939Y-105264002D01*
X107594061Y-105264002D01*
X107394102Y-105303776D01*
X107205744Y-105381797D01*
X107036226Y-105495065D01*
X106892063Y-105639228D01*
X106778795Y-105808746D01*
X106700774Y-105997104D01*
X106678616Y-106108500D01*
X98224734Y-106108500D01*
X98048311Y-106091124D01*
X97884650Y-106041478D01*
X97733828Y-105960862D01*
X97601630Y-105852370D01*
X97493138Y-105720172D01*
X97428000Y-105598307D01*
X97428000Y-105562061D01*
X97388226Y-105362102D01*
X97349336Y-105268214D01*
X97345500Y-105229266D01*
X97345500Y-104301750D01*
X97409000Y-104238250D01*
X97409000Y-103484260D01*
X97412522Y-103472650D01*
X97450552Y-103401500D01*
X97663000Y-103401500D01*
X97663000Y-104238250D01*
X97821750Y-104397000D01*
X98011000Y-104400072D01*
X98135482Y-104387812D01*
X98255180Y-104351502D01*
X98365494Y-104292537D01*
X98462185Y-104213185D01*
X98541537Y-104116494D01*
X98600502Y-104006180D01*
X98636812Y-103886482D01*
X98649072Y-103762000D01*
X98646000Y-103560250D01*
X98487250Y-103401500D01*
X97663000Y-103401500D01*
X97450552Y-103401500D01*
X97493138Y-103321828D01*
X97601630Y-103189630D01*
X97663000Y-103139265D01*
X97663000Y-103147500D01*
X98487250Y-103147500D01*
X98646000Y-102988750D01*
X98646841Y-102933500D01*
X99682491Y-102933500D01*
X99718555Y-102940674D01*
X99655077Y-103059433D01*
X99605252Y-103223684D01*
X99588428Y-103394500D01*
X99588428Y-103869500D01*
X99605252Y-104040316D01*
X99655077Y-104204567D01*
X99735988Y-104355942D01*
X99844877Y-104488623D01*
X99977558Y-104597512D01*
X100128933Y-104678423D01*
X100293184Y-104728248D01*
X100464000Y-104745072D01*
X101064000Y-104745072D01*
X101234816Y-104728248D01*
X101399067Y-104678423D01*
X101550442Y-104597512D01*
X101626500Y-104535093D01*
X101702558Y-104597512D01*
X101853933Y-104678423D01*
X102018184Y-104728248D01*
X102189000Y-104745072D01*
X102789000Y-104745072D01*
X102959816Y-104728248D01*
X103124067Y-104678423D01*
X103275442Y-104597512D01*
X103399622Y-104495600D01*
X103613378Y-104495600D01*
X103737558Y-104597512D01*
X103888933Y-104678423D01*
X104053184Y-104728248D01*
X104224000Y-104745072D01*
X104724000Y-104745072D01*
X104894816Y-104728248D01*
X105059067Y-104678423D01*
X105210442Y-104597512D01*
X105319283Y-104508188D01*
X105360315Y-104558185D01*
X105457006Y-104637537D01*
X105567320Y-104696502D01*
X105687018Y-104732812D01*
X105811500Y-104745072D01*
X106013250Y-104742000D01*
X106172000Y-104583250D01*
X106172000Y-103759000D01*
X106426000Y-103759000D01*
X106426000Y-104583250D01*
X106584750Y-104742000D01*
X106786500Y-104745072D01*
X106898919Y-104734000D01*
X112380928Y-104734000D01*
X112384000Y-105110750D01*
X112542750Y-105269500D01*
X113792000Y-105269500D01*
X113792000Y-104257750D01*
X114046000Y-104257750D01*
X114046000Y-105269500D01*
X115295250Y-105269500D01*
X115454000Y-105110750D01*
X115457072Y-104734000D01*
X115444812Y-104609518D01*
X115408502Y-104489820D01*
X115349537Y-104379506D01*
X115270185Y-104282815D01*
X115173494Y-104203463D01*
X115063180Y-104144498D01*
X114943482Y-104108188D01*
X114819000Y-104095928D01*
X114204750Y-104099000D01*
X114046000Y-104257750D01*
X113792000Y-104257750D01*
X113633250Y-104099000D01*
X113019000Y-104095928D01*
X112894518Y-104108188D01*
X112774820Y-104144498D01*
X112664506Y-104203463D01*
X112567815Y-104282815D01*
X112488463Y-104379506D01*
X112429498Y-104489820D01*
X112393188Y-104609518D01*
X112380928Y-104734000D01*
X106898919Y-104734000D01*
X106910982Y-104732812D01*
X107030680Y-104696502D01*
X107140994Y-104637537D01*
X107237685Y-104558185D01*
X107317037Y-104461494D01*
X107376002Y-104351180D01*
X107412312Y-104231482D01*
X107424572Y-104107000D01*
X107421500Y-103917750D01*
X107262750Y-103759000D01*
X106426000Y-103759000D01*
X106172000Y-103759000D01*
X106152000Y-103759000D01*
X106152000Y-103505000D01*
X106172000Y-103505000D01*
X106172000Y-102680750D01*
X106426000Y-102680750D01*
X106426000Y-103505000D01*
X107262750Y-103505000D01*
X107421500Y-103346250D01*
X107424572Y-103157000D01*
X107412312Y-103032518D01*
X107409577Y-103023500D01*
X107662428Y-103023500D01*
X107674688Y-103147982D01*
X107710998Y-103267680D01*
X107769963Y-103377994D01*
X107849315Y-103474685D01*
X107946006Y-103554037D01*
X108056320Y-103613002D01*
X108176018Y-103649312D01*
X108300500Y-103661572D01*
X108489750Y-103658500D01*
X108648500Y-103499750D01*
X108648500Y-102663000D01*
X108902500Y-102663000D01*
X108902500Y-103499750D01*
X109061250Y-103658500D01*
X109250500Y-103661572D01*
X109374982Y-103649312D01*
X109494680Y-103613002D01*
X109604994Y-103554037D01*
X109701685Y-103474685D01*
X109781037Y-103377994D01*
X109840002Y-103267680D01*
X109876312Y-103147982D01*
X109888572Y-103023500D01*
X109885500Y-102821750D01*
X109726750Y-102663000D01*
X108902500Y-102663000D01*
X108648500Y-102663000D01*
X107824250Y-102663000D01*
X107665500Y-102821750D01*
X107662428Y-103023500D01*
X107409577Y-103023500D01*
X107376002Y-102912820D01*
X107317037Y-102802506D01*
X107237685Y-102705815D01*
X107140994Y-102626463D01*
X107030680Y-102567498D01*
X106910982Y-102531188D01*
X106786500Y-102518928D01*
X106584750Y-102522000D01*
X106426000Y-102680750D01*
X106172000Y-102680750D01*
X106013250Y-102522000D01*
X105811500Y-102518928D01*
X105687018Y-102531188D01*
X105567320Y-102567498D01*
X105457006Y-102626463D01*
X105360315Y-102705815D01*
X105319283Y-102755812D01*
X105210442Y-102666488D01*
X105059067Y-102585577D01*
X104894816Y-102535752D01*
X104724000Y-102518928D01*
X104224000Y-102518928D01*
X104053184Y-102535752D01*
X103925850Y-102574378D01*
X103930503Y-102550466D01*
X103948914Y-102359463D01*
X103949500Y-102347278D01*
X103949500Y-102098234D01*
X103966876Y-101921811D01*
X104012017Y-101773000D01*
X104239928Y-101773000D01*
X104252188Y-101897482D01*
X104288498Y-102017180D01*
X104347463Y-102127494D01*
X104426815Y-102224185D01*
X104523506Y-102303537D01*
X104633820Y-102362502D01*
X104753518Y-102398812D01*
X104878000Y-102411072D01*
X105567250Y-102408000D01*
X105726000Y-102249250D01*
X105726000Y-101600000D01*
X105980000Y-101600000D01*
X105980000Y-102249250D01*
X106138750Y-102408000D01*
X106828000Y-102411072D01*
X106952482Y-102398812D01*
X107072180Y-102362502D01*
X107182494Y-102303537D01*
X107279185Y-102224185D01*
X107358537Y-102127494D01*
X107417502Y-102017180D01*
X107453812Y-101897482D01*
X107466072Y-101773000D01*
X107463000Y-101758750D01*
X107304250Y-101600000D01*
X105980000Y-101600000D01*
X105726000Y-101600000D01*
X104401750Y-101600000D01*
X104243000Y-101758750D01*
X104239928Y-101773000D01*
X104012017Y-101773000D01*
X104016522Y-101758150D01*
X104097138Y-101607328D01*
X104205630Y-101475130D01*
X104337828Y-101366638D01*
X104392934Y-101337184D01*
X104401750Y-101346000D01*
X105726000Y-101346000D01*
X105726000Y-101326000D01*
X105980000Y-101326000D01*
X105980000Y-101346000D01*
X107304250Y-101346000D01*
X107400672Y-101249578D01*
X107450277Y-101274853D01*
X107513147Y-101337723D01*
X107553510Y-101416939D01*
X107590765Y-101652164D01*
X107597051Y-101676253D01*
X107603043Y-101689954D01*
X107661670Y-101805015D01*
X107675093Y-101825983D01*
X107685025Y-101837161D01*
X107697309Y-101849445D01*
X107674688Y-101924018D01*
X107662428Y-102048500D01*
X107665500Y-102250250D01*
X107824250Y-102409000D01*
X108648500Y-102409000D01*
X108648500Y-102389000D01*
X108902500Y-102389000D01*
X108902500Y-102409000D01*
X109726750Y-102409000D01*
X109885500Y-102250250D01*
X109888572Y-102048500D01*
X109888178Y-102044500D01*
X111458500Y-102044500D01*
X111470948Y-102043888D01*
X111666038Y-102024673D01*
X111690456Y-102019817D01*
X111878049Y-101962912D01*
X111901050Y-101953384D01*
X112073937Y-101860974D01*
X112094638Y-101847142D01*
X112246175Y-101722779D01*
X112263779Y-101705175D01*
X112388142Y-101553638D01*
X112401974Y-101532937D01*
X112494384Y-101360050D01*
X112503912Y-101337049D01*
X112560817Y-101149456D01*
X112565673Y-101125038D01*
X112584888Y-100929948D01*
X112585500Y-100917500D01*
X112585500Y-100207680D01*
X112775434Y-100286353D01*
X113052673Y-100341500D01*
X113335343Y-100341500D01*
X113612582Y-100286353D01*
X113873735Y-100178180D01*
X114108767Y-100021137D01*
X114308645Y-99821259D01*
X114465688Y-99586227D01*
X114573861Y-99325074D01*
X114629008Y-99047835D01*
X114629008Y-98765165D01*
X114573861Y-98487926D01*
X114465688Y-98226773D01*
X114308645Y-97991741D01*
X114108767Y-97791863D01*
X113873735Y-97634820D01*
X113612582Y-97526647D01*
X113335343Y-97471500D01*
X113052673Y-97471500D01*
X112775434Y-97526647D01*
X112514281Y-97634820D01*
X112279249Y-97791863D01*
X112245906Y-97825207D01*
X112237494Y-97816795D01*
X112215259Y-97799064D01*
X112109718Y-97732748D01*
X112111072Y-97719000D01*
X112108000Y-97467250D01*
X111949250Y-97308500D01*
X111125000Y-97308500D01*
X111125000Y-97328500D01*
X111082802Y-97328500D01*
X111004396Y-97203718D01*
X110952796Y-97056251D01*
X110934500Y-96893872D01*
X110934500Y-96167750D01*
X111125000Y-96167750D01*
X111125000Y-97054500D01*
X111949250Y-97054500D01*
X112108000Y-96895750D01*
X112111072Y-96644000D01*
X112098812Y-96519518D01*
X112062502Y-96399820D01*
X112003537Y-96289506D01*
X111924185Y-96192815D01*
X111827494Y-96113463D01*
X111717180Y-96054498D01*
X111597482Y-96018188D01*
X111473000Y-96005928D01*
X111283750Y-96009000D01*
X111125000Y-96167750D01*
X110934500Y-96167750D01*
X110934500Y-94361000D01*
X111108500Y-94361000D01*
X111108500Y-95185250D01*
X111267250Y-95344000D01*
X111469000Y-95347072D01*
X111593482Y-95334812D01*
X111713180Y-95298502D01*
X111823494Y-95239537D01*
X111920185Y-95160185D01*
X111999537Y-95063494D01*
X112058502Y-94953180D01*
X112094812Y-94833482D01*
X112107072Y-94709000D01*
X112104000Y-94519750D01*
X111945250Y-94361000D01*
X111108500Y-94361000D01*
X110934500Y-94361000D01*
X110934500Y-93282750D01*
X111108500Y-93282750D01*
X111108500Y-94107000D01*
X111945250Y-94107000D01*
X112104000Y-93948250D01*
X112107072Y-93759000D01*
X112094812Y-93634518D01*
X112058502Y-93514820D01*
X111999537Y-93404506D01*
X111920185Y-93307815D01*
X111823494Y-93228463D01*
X111713180Y-93169498D01*
X111593482Y-93133188D01*
X111469000Y-93120928D01*
X111267250Y-93124000D01*
X111108500Y-93282750D01*
X110934500Y-93282750D01*
X110934500Y-92754259D01*
X110948882Y-92681952D01*
X110976981Y-92639899D01*
X111271750Y-92638000D01*
X111430500Y-92479250D01*
X111430500Y-92398569D01*
X111462846Y-92350160D01*
X111474582Y-92328203D01*
X111481809Y-92304378D01*
X111503560Y-92195026D01*
X111506000Y-92170250D01*
X111506000Y-90805000D01*
X111684500Y-90805000D01*
X111684500Y-92479250D01*
X111843250Y-92638000D01*
X112320000Y-92641072D01*
X112444482Y-92628812D01*
X112564180Y-92592502D01*
X112674494Y-92533537D01*
X112771185Y-92454185D01*
X112850537Y-92357494D01*
X112909502Y-92247180D01*
X112945812Y-92127482D01*
X112958072Y-92003000D01*
X112955000Y-90963750D01*
X112796250Y-90805000D01*
X111684500Y-90805000D01*
X111506000Y-90805000D01*
X111506000Y-88876750D01*
X111684500Y-88876750D01*
X111684500Y-90551000D01*
X112796250Y-90551000D01*
X112955000Y-90392250D01*
X112958072Y-89353000D01*
X112945812Y-89228518D01*
X112909502Y-89108820D01*
X112850537Y-88998506D01*
X112771185Y-88901815D01*
X112674494Y-88822463D01*
X112564180Y-88763498D01*
X112444482Y-88727188D01*
X112320000Y-88714928D01*
X111843250Y-88718000D01*
X111684500Y-88876750D01*
X111506000Y-88876750D01*
X111506000Y-88251064D01*
X111505387Y-88238600D01*
X111486122Y-88043257D01*
X111481252Y-88018808D01*
X111424199Y-87830991D01*
X111414647Y-87807965D01*
X111322005Y-87634912D01*
X111308139Y-87614194D01*
X111183476Y-87462572D01*
X111165831Y-87444963D01*
X111013952Y-87320613D01*
X110993206Y-87306790D01*
X110819962Y-87214505D01*
X110796917Y-87205001D01*
X110608984Y-87148335D01*
X110584525Y-87143516D01*
X110389142Y-87124654D01*
X110376676Y-87124066D01*
X96549056Y-87152577D01*
X96535840Y-87153294D01*
X96330757Y-87175182D01*
X96304905Y-87180708D01*
X96108797Y-87244580D01*
X96084649Y-87255339D01*
X95906012Y-87358427D01*
X95884615Y-87373952D01*
X95731190Y-87511789D01*
X95713470Y-87531406D01*
X95591905Y-87698019D01*
X95478222Y-87853763D01*
X95351351Y-87967601D01*
X95229250Y-87845500D01*
X93980000Y-87845500D01*
X93980000Y-87865500D01*
X93726000Y-87865500D01*
X93726000Y-87845500D01*
X92543250Y-87845500D01*
X92518250Y-87820500D01*
X91694000Y-87820500D01*
X91694000Y-87840500D01*
X91440000Y-87840500D01*
X91440000Y-87820500D01*
X90615750Y-87820500D01*
X90526644Y-87909606D01*
X90159583Y-87542545D01*
X90147277Y-87449073D01*
X90138696Y-87417049D01*
X90075259Y-87263899D01*
X90058682Y-87235188D01*
X89997920Y-87156000D01*
X90453928Y-87156000D01*
X90457000Y-87407750D01*
X90615750Y-87566500D01*
X91440000Y-87566500D01*
X91440000Y-86679750D01*
X91694000Y-86679750D01*
X91694000Y-87566500D01*
X92451750Y-87566500D01*
X92476750Y-87591500D01*
X93726000Y-87591500D01*
X93726000Y-86579750D01*
X93980000Y-86579750D01*
X93980000Y-87591500D01*
X95229250Y-87591500D01*
X95388000Y-87432750D01*
X95391072Y-87056000D01*
X95378812Y-86931518D01*
X95342502Y-86811820D01*
X95283537Y-86701506D01*
X95204185Y-86604815D01*
X95107494Y-86525463D01*
X94997180Y-86466498D01*
X94877482Y-86430188D01*
X94753000Y-86417928D01*
X94138750Y-86421000D01*
X93980000Y-86579750D01*
X93726000Y-86579750D01*
X93567250Y-86421000D01*
X92953000Y-86417928D01*
X92828518Y-86430188D01*
X92708820Y-86466498D01*
X92598506Y-86525463D01*
X92501815Y-86604815D01*
X92449303Y-86668802D01*
X92396494Y-86625463D01*
X92286180Y-86566498D01*
X92166482Y-86530188D01*
X92042000Y-86517928D01*
X91852750Y-86521000D01*
X91694000Y-86679750D01*
X91440000Y-86679750D01*
X91281250Y-86521000D01*
X91092000Y-86517928D01*
X90967518Y-86530188D01*
X90847820Y-86566498D01*
X90737506Y-86625463D01*
X90640815Y-86704815D01*
X90561463Y-86801506D01*
X90502498Y-86911820D01*
X90466188Y-87031518D01*
X90453928Y-87156000D01*
X89997920Y-87156000D01*
X89957769Y-87103675D01*
X89934325Y-87080231D01*
X89802812Y-86979318D01*
X89774101Y-86962741D01*
X89620951Y-86899304D01*
X89588927Y-86890723D01*
X89424577Y-86869086D01*
X89408000Y-86868000D01*
X88367378Y-86868000D01*
X88197934Y-86848908D01*
X88043756Y-86794960D01*
X87905450Y-86708056D01*
X87797000Y-86599606D01*
X87797000Y-85675894D01*
X87905450Y-85567444D01*
X88043756Y-85480540D01*
X88197934Y-85426592D01*
X88367378Y-85407500D01*
X115608537Y-85407500D01*
X115785295Y-85424942D01*
G37*
%TD.AperFunction*%
%TD*%
D24*
%TO.N,Net-(C4-Pad2)*%
X106997500Y-93855134D02*
X103375848Y-93916518D01*
X103351116Y-93919378D01*
X103327418Y-93927008D01*
X103305663Y-93939114D01*
X103286688Y-93955232D01*
X103271223Y-93974742D01*
X103259861Y-93996895D01*
X103253038Y-94020838D01*
X103251000Y-94043500D01*
X103251000Y-94524921D01*
X103180000Y-94517928D01*
X102928250Y-94521000D01*
X102769500Y-94679750D01*
X102769500Y-95504000D01*
X102789500Y-95504000D01*
X102789500Y-95758000D01*
X102769500Y-95758000D01*
X102769500Y-96208648D01*
X102757899Y-96212167D01*
X102735943Y-96223903D01*
X102716697Y-96239697D01*
X102700903Y-96258943D01*
X102689167Y-96280899D01*
X102681940Y-96304724D01*
X102679500Y-96329500D01*
X102679500Y-97790000D01*
X98933000Y-97790000D01*
X98933000Y-97363000D01*
X99289928Y-97363000D01*
X99293000Y-97377250D01*
X99451750Y-97536000D01*
X100776000Y-97536000D01*
X100776000Y-96886750D01*
X101030000Y-96886750D01*
X101030000Y-97536000D01*
X102354250Y-97536000D01*
X102513000Y-97377250D01*
X102516072Y-97363000D01*
X102503812Y-97238518D01*
X102467502Y-97118820D01*
X102408537Y-97008506D01*
X102329185Y-96911815D01*
X102232494Y-96832463D01*
X102122180Y-96773498D01*
X102002482Y-96737188D01*
X101878000Y-96724928D01*
X101188750Y-96728000D01*
X101030000Y-96886750D01*
X100776000Y-96886750D01*
X100617250Y-96728000D01*
X99928000Y-96724928D01*
X99803518Y-96737188D01*
X99683820Y-96773498D01*
X99573506Y-96832463D01*
X99476815Y-96911815D01*
X99397463Y-97008506D01*
X99338498Y-97118820D01*
X99302188Y-97238518D01*
X99289928Y-97363000D01*
X98933000Y-97363000D01*
X98933000Y-96106000D01*
X101466928Y-96106000D01*
X101479188Y-96230482D01*
X101515498Y-96350180D01*
X101574463Y-96460494D01*
X101653815Y-96557185D01*
X101750506Y-96636537D01*
X101860820Y-96695502D01*
X101980518Y-96731812D01*
X102105000Y-96744072D01*
X102356750Y-96741000D01*
X102515500Y-96582250D01*
X102515500Y-95758000D01*
X101628750Y-95758000D01*
X101470000Y-95916750D01*
X101466928Y-96106000D01*
X98933000Y-96106000D01*
X98933000Y-96001106D01*
X99778106Y-95156000D01*
X101466928Y-95156000D01*
X101470000Y-95345250D01*
X101628750Y-95504000D01*
X102515500Y-95504000D01*
X102515500Y-94679750D01*
X102356750Y-94521000D01*
X102105000Y-94517928D01*
X101980518Y-94530188D01*
X101860820Y-94566498D01*
X101750506Y-94625463D01*
X101653815Y-94704815D01*
X101574463Y-94801506D01*
X101515498Y-94911820D01*
X101479188Y-95031518D01*
X101466928Y-95156000D01*
X99778106Y-95156000D01*
X100991303Y-93942803D01*
X101007097Y-93923557D01*
X101018833Y-93901601D01*
X101026060Y-93877776D01*
X101028500Y-93853000D01*
X101028500Y-92519500D01*
X101406428Y-92519500D01*
X101418688Y-92643982D01*
X101454998Y-92763680D01*
X101513963Y-92873994D01*
X101593315Y-92970685D01*
X101690006Y-93050037D01*
X101800320Y-93109002D01*
X101920018Y-93145312D01*
X102044500Y-93157572D01*
X102965250Y-93154500D01*
X103124000Y-92995750D01*
X103124000Y-90932000D01*
X103378000Y-90932000D01*
X103378000Y-92995750D01*
X103536750Y-93154500D01*
X104457500Y-93157572D01*
X104581982Y-93145312D01*
X104701680Y-93109002D01*
X104811994Y-93050037D01*
X104908685Y-92970685D01*
X104988037Y-92873994D01*
X105047002Y-92763680D01*
X105083312Y-92643982D01*
X105095572Y-92519500D01*
X105094462Y-92003000D01*
X105481928Y-92003000D01*
X105494188Y-92127482D01*
X105530498Y-92247180D01*
X105589463Y-92357494D01*
X105668815Y-92454185D01*
X105765506Y-92533537D01*
X105875820Y-92592502D01*
X105995518Y-92628812D01*
X106120000Y-92641072D01*
X106596750Y-92638000D01*
X106755500Y-92479250D01*
X106755500Y-90805000D01*
X105643750Y-90805000D01*
X105485000Y-90963750D01*
X105481928Y-92003000D01*
X105094462Y-92003000D01*
X105092500Y-91090750D01*
X104933750Y-90932000D01*
X103378000Y-90932000D01*
X103124000Y-90932000D01*
X101568250Y-90932000D01*
X101409500Y-91090750D01*
X101406428Y-92519500D01*
X101028500Y-92519500D01*
X101028500Y-89090500D01*
X101406428Y-89090500D01*
X101409500Y-90519250D01*
X101568250Y-90678000D01*
X103124000Y-90678000D01*
X103124000Y-88614250D01*
X103378000Y-88614250D01*
X103378000Y-90678000D01*
X104933750Y-90678000D01*
X105092500Y-90519250D01*
X105095007Y-89353000D01*
X105481928Y-89353000D01*
X105485000Y-90392250D01*
X105643750Y-90551000D01*
X106755500Y-90551000D01*
X106755500Y-88876750D01*
X106596750Y-88718000D01*
X106120000Y-88714928D01*
X105995518Y-88727188D01*
X105875820Y-88763498D01*
X105765506Y-88822463D01*
X105668815Y-88901815D01*
X105589463Y-88998506D01*
X105530498Y-89108820D01*
X105494188Y-89228518D01*
X105481928Y-89353000D01*
X105095007Y-89353000D01*
X105095572Y-89090500D01*
X105083312Y-88966018D01*
X105047002Y-88846320D01*
X104988037Y-88736006D01*
X104908685Y-88639315D01*
X104811994Y-88559963D01*
X104701680Y-88500998D01*
X104581982Y-88464688D01*
X104457500Y-88452428D01*
X103536750Y-88455500D01*
X103378000Y-88614250D01*
X103124000Y-88614250D01*
X102965250Y-88455500D01*
X102044500Y-88452428D01*
X101920018Y-88464688D01*
X101800320Y-88500998D01*
X101690006Y-88559963D01*
X101593315Y-88639315D01*
X101513963Y-88736006D01*
X101454998Y-88846320D01*
X101418688Y-88966018D01*
X101406428Y-89090500D01*
X101028500Y-89090500D01*
X101028500Y-87947500D01*
X106997500Y-87947500D01*
X106997500Y-93855134D01*
%TA.AperFunction,Conductor*%
D25*
G36*
X106997500Y-93855134D02*
G01*
X103375848Y-93916518D01*
X103351116Y-93919378D01*
X103327418Y-93927008D01*
X103305663Y-93939114D01*
X103286688Y-93955232D01*
X103271223Y-93974742D01*
X103259861Y-93996895D01*
X103253038Y-94020838D01*
X103251000Y-94043500D01*
X103251000Y-94524921D01*
X103180000Y-94517928D01*
X102928250Y-94521000D01*
X102769500Y-94679750D01*
X102769500Y-95504000D01*
X102789500Y-95504000D01*
X102789500Y-95758000D01*
X102769500Y-95758000D01*
X102769500Y-96208648D01*
X102757899Y-96212167D01*
X102735943Y-96223903D01*
X102716697Y-96239697D01*
X102700903Y-96258943D01*
X102689167Y-96280899D01*
X102681940Y-96304724D01*
X102679500Y-96329500D01*
X102679500Y-97790000D01*
X98933000Y-97790000D01*
X98933000Y-97363000D01*
X99289928Y-97363000D01*
X99293000Y-97377250D01*
X99451750Y-97536000D01*
X100776000Y-97536000D01*
X100776000Y-96886750D01*
X101030000Y-96886750D01*
X101030000Y-97536000D01*
X102354250Y-97536000D01*
X102513000Y-97377250D01*
X102516072Y-97363000D01*
X102503812Y-97238518D01*
X102467502Y-97118820D01*
X102408537Y-97008506D01*
X102329185Y-96911815D01*
X102232494Y-96832463D01*
X102122180Y-96773498D01*
X102002482Y-96737188D01*
X101878000Y-96724928D01*
X101188750Y-96728000D01*
X101030000Y-96886750D01*
X100776000Y-96886750D01*
X100617250Y-96728000D01*
X99928000Y-96724928D01*
X99803518Y-96737188D01*
X99683820Y-96773498D01*
X99573506Y-96832463D01*
X99476815Y-96911815D01*
X99397463Y-97008506D01*
X99338498Y-97118820D01*
X99302188Y-97238518D01*
X99289928Y-97363000D01*
X98933000Y-97363000D01*
X98933000Y-96106000D01*
X101466928Y-96106000D01*
X101479188Y-96230482D01*
X101515498Y-96350180D01*
X101574463Y-96460494D01*
X101653815Y-96557185D01*
X101750506Y-96636537D01*
X101860820Y-96695502D01*
X101980518Y-96731812D01*
X102105000Y-96744072D01*
X102356750Y-96741000D01*
X102515500Y-96582250D01*
X102515500Y-95758000D01*
X101628750Y-95758000D01*
X101470000Y-95916750D01*
X101466928Y-96106000D01*
X98933000Y-96106000D01*
X98933000Y-96001106D01*
X99778106Y-95156000D01*
X101466928Y-95156000D01*
X101470000Y-95345250D01*
X101628750Y-95504000D01*
X102515500Y-95504000D01*
X102515500Y-94679750D01*
X102356750Y-94521000D01*
X102105000Y-94517928D01*
X101980518Y-94530188D01*
X101860820Y-94566498D01*
X101750506Y-94625463D01*
X101653815Y-94704815D01*
X101574463Y-94801506D01*
X101515498Y-94911820D01*
X101479188Y-95031518D01*
X101466928Y-95156000D01*
X99778106Y-95156000D01*
X100991303Y-93942803D01*
X101007097Y-93923557D01*
X101018833Y-93901601D01*
X101026060Y-93877776D01*
X101028500Y-93853000D01*
X101028500Y-92519500D01*
X101406428Y-92519500D01*
X101418688Y-92643982D01*
X101454998Y-92763680D01*
X101513963Y-92873994D01*
X101593315Y-92970685D01*
X101690006Y-93050037D01*
X101800320Y-93109002D01*
X101920018Y-93145312D01*
X102044500Y-93157572D01*
X102965250Y-93154500D01*
X103124000Y-92995750D01*
X103124000Y-90932000D01*
X103378000Y-90932000D01*
X103378000Y-92995750D01*
X103536750Y-93154500D01*
X104457500Y-93157572D01*
X104581982Y-93145312D01*
X104701680Y-93109002D01*
X104811994Y-93050037D01*
X104908685Y-92970685D01*
X104988037Y-92873994D01*
X105047002Y-92763680D01*
X105083312Y-92643982D01*
X105095572Y-92519500D01*
X105094462Y-92003000D01*
X105481928Y-92003000D01*
X105494188Y-92127482D01*
X105530498Y-92247180D01*
X105589463Y-92357494D01*
X105668815Y-92454185D01*
X105765506Y-92533537D01*
X105875820Y-92592502D01*
X105995518Y-92628812D01*
X106120000Y-92641072D01*
X106596750Y-92638000D01*
X106755500Y-92479250D01*
X106755500Y-90805000D01*
X105643750Y-90805000D01*
X105485000Y-90963750D01*
X105481928Y-92003000D01*
X105094462Y-92003000D01*
X105092500Y-91090750D01*
X104933750Y-90932000D01*
X103378000Y-90932000D01*
X103124000Y-90932000D01*
X101568250Y-90932000D01*
X101409500Y-91090750D01*
X101406428Y-92519500D01*
X101028500Y-92519500D01*
X101028500Y-89090500D01*
X101406428Y-89090500D01*
X101409500Y-90519250D01*
X101568250Y-90678000D01*
X103124000Y-90678000D01*
X103124000Y-88614250D01*
X103378000Y-88614250D01*
X103378000Y-90678000D01*
X104933750Y-90678000D01*
X105092500Y-90519250D01*
X105095007Y-89353000D01*
X105481928Y-89353000D01*
X105485000Y-90392250D01*
X105643750Y-90551000D01*
X106755500Y-90551000D01*
X106755500Y-88876750D01*
X106596750Y-88718000D01*
X106120000Y-88714928D01*
X105995518Y-88727188D01*
X105875820Y-88763498D01*
X105765506Y-88822463D01*
X105668815Y-88901815D01*
X105589463Y-88998506D01*
X105530498Y-89108820D01*
X105494188Y-89228518D01*
X105481928Y-89353000D01*
X105095007Y-89353000D01*
X105095572Y-89090500D01*
X105083312Y-88966018D01*
X105047002Y-88846320D01*
X104988037Y-88736006D01*
X104908685Y-88639315D01*
X104811994Y-88559963D01*
X104701680Y-88500998D01*
X104581982Y-88464688D01*
X104457500Y-88452428D01*
X103536750Y-88455500D01*
X103378000Y-88614250D01*
X103124000Y-88614250D01*
X102965250Y-88455500D01*
X102044500Y-88452428D01*
X101920018Y-88464688D01*
X101800320Y-88500998D01*
X101690006Y-88559963D01*
X101593315Y-88639315D01*
X101513963Y-88736006D01*
X101454998Y-88846320D01*
X101418688Y-88966018D01*
X101406428Y-89090500D01*
X101028500Y-89090500D01*
X101028500Y-87947500D01*
X106997500Y-87947500D01*
X106997500Y-93855134D01*
G37*
%TD.AperFunction*%
%TD*%
M02*
